<svg xmlns="http://www.w3.org/2000/svg" width="25" height="24" viewBox="0 0 25 24" fill="none">
  <g clip-path="url(#clip0_200_1960)">
    <mask id="mask0_200_1960" style="mask-type:luminance" maskUnits="userSpaceOnUse" x="0" y="0" width="25" height="24">
      <path d="M24.6904 0H0.69043V24H24.6904V0Z" fill="white"/>
    </mask>
    <g mask="url(#mask0_200_1960)">
      <path d="M10.9722 1.43994C7.96266 1.43994 5.0536 2.49099 2.7832 4.40619C2.6248 4.53579 2.56776 4.75232 2.63976 4.94432C2.71176 5.13632 2.90807 5.26528 3.10007 5.25088C3.13367 5.25088 6.20601 5.21293 7.64601 7.75213C7.07481 7.85293 6.2254 8.07395 5.3182 8.58275C3.8638 9.39395 1.96247 11.1307 1.18007 14.7787C1.14167 14.9659 1.21397 15.1538 1.36757 15.269C1.52117 15.3794 1.7227 15.3883 1.8907 15.2971C1.9195 15.2779 4.59756 13.7762 7.18476 14.8274C6.36876 15.7058 5.0107 17.8127 5.0107 22.0799C5.0107 22.2911 5.15035 22.4788 5.35195 22.5412C5.39995 22.5556 5.4427 22.5599 5.4907 22.5599C5.6491 22.5599 5.79793 22.4835 5.88913 22.3443C5.91313 22.3107 8.19835 18.9982 13.8719 20.3278C13.8863 20.3326 13.8951 20.3323 13.9047 20.3371C14.0631 20.3851 14.2262 20.4235 14.3894 20.4571C14.4182 20.4619 14.4525 20.4719 14.4813 20.4815V20.4768C14.9805 20.5824 15.5083 20.6399 16.0507 20.6399C19.6651 20.6399 21.988 18.9551 22.2616 16.1999C22.2856 16.1951 22.3098 16.1908 22.3338 16.1812C23.2506 15.874 23.8271 15.1684 23.6735 14.5828C23.5871 14.2708 23.3375 14.0447 22.9535 13.9631C23.0159 13.7087 23.0687 13.4499 23.1119 13.1859C23.3519 11.6787 23.2216 10.4306 22.78 9.66744C23.8792 8.31864 23.7261 6.39853 23.7213 6.31213L23.6922 6.00463L23.4044 5.89869C22.6316 5.62989 21.5703 5.80352 20.7447 6.02432C18.4023 3.19232 14.8218 1.43994 10.9722 1.43994ZM10.6319 3.35994H10.8663C10.9287 3.35994 12.4696 3.37918 13.9816 4.83838C14.1736 5.02078 14.179 5.32805 13.9966 5.51525C13.8142 5.70725 13.5069 5.71172 13.3197 5.52932C12.4077 4.65092 11.5144 4.41152 11.1016 4.34432C10.4392 5.46752 10.9674 7.0271 10.9722 7.0415C11.0586 7.2959 10.9246 7.56917 10.6751 7.65557C10.6223 7.66997 10.5694 7.67994 10.5166 7.67994C10.3198 7.67994 10.132 7.55518 10.0648 7.35838C10.0312 7.26238 9.29717 5.07864 10.4876 3.54744L10.6319 3.35994ZM14.3032 7.67994C15.5176 7.67994 16.7707 9.11972 16.7707 11.5293C16.7707 12.8973 17.4619 13.8628 18.2107 13.8628C18.5515 13.8628 19.0696 13.526 19.42 13.1324C19.4488 13.5308 19.5599 13.8044 19.7519 13.8524C20.0879 13.934 20.4671 13.3297 20.6735 12.3937C20.8559 11.5393 20.8269 10.8098 20.5629 10.6274C20.6397 10.4978 20.7111 10.3823 20.7879 10.2815C21.2247 9.7007 21.5176 9.79228 21.6232 9.82588C22.1176 9.97948 22.454 11.2177 22.166 13.0321C22.1132 13.3729 22.0358 13.6989 21.9494 14.0109C21.887 14.0253 21.8299 14.0395 21.7675 14.0587C21.3595 14.1979 21.0186 14.4194 20.7738 14.669C20.2218 14.6258 19.7038 14.8035 19.195 14.9859C18.6814 15.1683 18.1435 15.3599 17.4907 15.3599C15.8347 15.3599 14.5192 14.8603 13.4632 14.4571C13.1992 14.3563 12.9448 14.2556 12.7 14.174C12.3784 13.478 12.2107 12.6623 12.2107 11.8031C12.2107 9.45107 13.108 7.67994 14.3032 7.67994ZM14.785 10.1296C14.4505 10.0451 14.0178 10.6768 13.8138 11.6128C13.6098 12.5488 13.7174 13.3175 14.0519 13.4015C14.3865 13.4855 14.7676 12.8759 14.9716 11.9399C15.1756 11.0039 15.1191 10.2131 14.785 10.1296ZM11.395 14.8659C11.8462 14.8659 12.4317 15.0866 13.1229 15.3506C14.2509 15.7826 15.6571 16.3199 17.4907 16.3199C18.3115 16.3199 18.9502 16.0894 19.5166 15.8878C19.8574 15.7678 20.135 15.672 20.3894 15.6384C20.3942 15.6528 20.3902 15.6671 20.395 15.6815C20.4862 16.0223 20.827 16.2388 21.2782 16.3012C20.8366 19.4164 17.2123 19.6799 16.0507 19.6799C15.5995 19.6799 15.1576 19.6369 14.74 19.5553H14.7307C14.5051 19.5073 14.2839 19.4546 14.0679 19.3874C12.1335 18.7874 10.7707 17.342 10.7707 15.6524C10.7707 15.0332 10.9482 14.9612 11.0154 14.9324C11.1306 14.8844 11.2558 14.8659 11.395 14.8659ZM12.6804 16.3143C12.5889 16.3154 12.4996 16.3427 12.4231 16.3928C12.3466 16.443 12.286 16.514 12.2484 16.5974C12.2109 16.6808 12.198 16.7733 12.2112 16.8638C12.2245 16.9543 12.2633 17.0392 12.3232 17.1084C13.1566 18.1021 14.5217 18.7199 16.0507 18.7199C16.1143 18.7208 16.1774 18.7091 16.2364 18.6854C16.2955 18.6617 16.3492 18.6264 16.3945 18.5818C16.4398 18.5371 16.4758 18.4839 16.5003 18.4252C16.5249 18.3665 16.5375 18.3036 16.5375 18.2399C16.5375 18.1763 16.5249 18.1134 16.5003 18.0547C16.4758 17.996 16.4398 17.9428 16.3945 17.8981C16.3492 17.8534 16.2955 17.8182 16.2364 17.7945C16.1774 17.7708 16.1143 17.759 16.0507 17.7599C14.7832 17.7599 13.682 17.2354 13.0582 16.4915C13.0126 16.4354 12.9549 16.3904 12.8895 16.3597C12.8241 16.329 12.7526 16.3135 12.6804 16.3143Z" fill="#185745"/>
    </g>
  </g>
  <defs>
    <clipPath id="clip0_200_1960">
      <rect width="24" height="24" fill="white" transform="translate(0.69043)"/>
    </clipPath>
  </defs>
</svg>