<svg xmlns="http://www.w3.org/2000/svg" width="25" height="24" viewBox="0 0 25 24" fill="none">
  <g clip-path="url(#clip0_200_1970)">
    <mask id="mask0_200_1970" style="mask-type:luminance" maskUnits="userSpaceOnUse" x="0" y="0" width="25" height="24">
      <path d="M24.2002 0H0.200195V24H24.2002V0Z" fill="white"/>
    </mask>
    <g mask="url(#mask0_200_1970)">
      <path d="M8.35999 2.87988C8.23624 2.88176 8.11811 2.93051 8.02999 3.01863C7.68124 3.16301 7.39999 3.44238 7.39999 3.83988C7.39811 4.01238 7.48811 4.17363 7.63811 4.26176C7.78811 4.34801 7.97186 4.34801 8.12186 4.26176C8.27186 4.17363 8.36186 4.01238 8.35999 3.83988V8.63988C8.35999 8.90426 8.14436 9.11988 7.87999 9.11988C7.61561 9.11988 7.39999 8.90426 7.39999 8.63988V6.89051C6.56749 7.45863 4.92311 8.19738 2.79499 7.24301C2.62249 7.16426 2.41436 7.19801 2.27374 7.32738C2.13124 7.45863 2.08249 7.66113 2.14811 7.84301C2.15749 7.86926 2.91124 9.85676 4.99999 10.6818V12.6393C4.44686 12.8605 2.91124 13.3424 1.38499 12.5343C1.19748 12.4368 0.970609 12.4705 0.820609 12.6205C0.670609 12.7686 0.636858 12.9974 0.736234 13.1849C0.803734 13.3124 2.43311 16.3199 5.95999 16.3199H18.44C21.9669 16.3199 23.5962 13.3124 23.6656 13.1849C23.7631 12.9974 23.7294 12.7686 23.5794 12.6205C23.4294 12.4724 23.2025 12.4368 23.015 12.5343C21.4962 13.3368 19.955 12.8586 19.4 12.6393V10.6818C21.4887 9.85676 22.2425 7.86926 22.25 7.84301C22.3156 7.66301 22.2687 7.46238 22.13 7.33113C21.9912 7.19988 21.7869 7.16426 21.6125 7.23738C19.46 8.15988 17.8306 7.44363 17 6.88488V8.63988C17 8.90426 16.7844 9.11988 16.52 9.11988C16.2575 9.11988 16.04 8.90426 16.04 8.63988V3.83988C16.0381 4.01238 16.1281 4.17363 16.2781 4.26176C16.4281 4.34801 16.6119 4.34801 16.7619 4.26176C16.9119 4.17363 17.0019 4.01238 17 3.83988C17 3.44238 16.7187 3.16301 16.37 3.01863C16.2819 2.93051 16.1637 2.88176 16.04 2.87988C15.9162 2.88176 15.7981 2.93051 15.71 3.01863C15.3612 3.16301 15.08 3.44238 15.08 3.83988V4.31988H9.31999V3.83988C9.31999 3.44238 9.03874 3.16301 8.68999 3.01863C8.60186 2.93051 8.48374 2.88176 8.35999 2.87988ZM5.95999 10.9499C6.25999 11.0024 6.57499 11.0399 6.91999 11.0399H9.31999V12.4799H5.95999V10.9499ZM18.44 10.9499V12.4799H15.08V11.0399H17.48C17.825 11.0399 18.14 11.0024 18.44 10.9499ZM10.28 11.0399H14.12V12.4799H10.28V11.0399ZM4.03999 16.9986V20.6399C4.03999 20.9043 4.25374 21.1199 4.51999 21.1199H19.88C20.1462 21.1199 20.36 20.9043 20.36 20.6399V16.9986C19.7825 17.1711 19.1469 17.2799 18.44 17.2799H15.08V20.1599H9.31999V17.2799H5.95999C5.25311 17.2799 4.61749 17.1711 4.03999 16.9986ZM10.28 17.2799V18.2399H14.12V17.2799H10.28Z" fill="#185745"/>
    </g>
  </g>
  <defs>
    <clipPath id="clip0_200_1970">
      <rect width="24" height="24" fill="white" transform="translate(0.200195)"/>
    </clipPath>
  </defs>
</svg>