<svg xmlns="http://www.w3.org/2000/svg" width="24" height="26" viewBox="0 0 24 26" fill="none">
  <g clip-path="url(#clip0_20_24560)">
    <mask id="mask0_20_24560" style="mask-type:luminance" maskUnits="userSpaceOnUse" x="0" y="0" width="24" height="26">
      <path d="M23.9602 0.480011H0.00683594V25.51H23.9602V0.480011Z" fill="white"/>
    </mask>
    <g mask="url(#mask0_20_24560)">
      <path d="M12.1219 1.4441C11.9987 0.800343 11.3775 0.378203 10.7348 0.501543L0.969266 2.37551C0.326149 2.49885 -0.0949159 3.12072 0.0282258 3.76487L2.72781 17.8789L4.94237 3.18836C4.99997 2.806 5.19382 2.45747 5.48698 2.20682C5.77695 1.95895 6.14598 1.82207 6.52613 1.82207C6.60598 1.82207 6.68741 1.82843 6.76726 1.84038L12.3595 2.68624L12.1219 1.4441ZM2.21936 5.18646C2.21936 5.18646 0.989922 4.82042 0.751186 4.14126C0.619306 3.7784 0.84255 3.38411 1.22032 3.31131C1.55956 3.24565 1.79987 3.39128 1.93613 3.71912C1.9405 3.36421 2.10932 3.13903 2.44895 3.07337C2.82672 3.00016 3.18026 3.28266 3.19256 3.66859C3.22395 4.38794 2.21936 5.18646 2.21936 5.18646Z" fill="#006622"/>
      <path d="M10.3777 10.3635C10.4413 10.7769 10.5918 11.5043 10.7924 12.5041L9.40723 12.3C9.73931 11.6486 10.1759 10.7968 10.3777 10.3635Z" fill="#006622"/>
      <path d="M16.5366 3.74099L6.70509 2.25415C6.0576 2.15628 5.45381 2.60269 5.3557 3.25082L2.99098 18.9353C2.89326 19.5834 3.33895 20.1881 3.98605 20.2865L8.05607 20.9019C8.04893 20.7901 8.04575 20.678 8.04575 20.5645C8.04575 17.5626 10.4843 15.1201 13.4814 15.1201C14.3621 15.1201 15.1943 15.3309 15.9307 15.7053L17.5308 5.09256C17.6289 4.44442 17.1841 3.83926 16.5366 3.74099ZM7.49359 5.22067C7.3204 5.19521 7.1921 5.1232 7.10907 5.0094C7.1484 5.23739 7.25486 5.39056 7.31762 5.46337C7.33232 5.48048 7.31762 5.50674 7.29577 5.50316L6.87669 5.44148L6.45761 5.37982C6.43537 5.37664 6.42902 5.34759 6.44808 5.33566C6.52912 5.28353 6.6753 5.16775 6.77818 4.96046C6.66577 5.04521 6.52276 5.07704 6.34917 5.05198C6.24629 5.03685 6.15651 4.98036 6.08303 4.89999C5.8145 4.60517 5.89235 4.13608 6.23755 3.93714C6.9609 3.52017 7.21156 3.16249 7.21156 3.16249C7.21156 3.16249 7.3482 3.57747 7.92101 4.18502C8.19431 4.47507 8.13393 4.94693 7.79231 5.15183C7.69857 5.20754 7.59608 5.23619 7.49359 5.22067ZM11.9636 14.7496L11.222 14.6402C11.2046 14.6375 11.1903 14.6244 11.1866 14.6068L10.8951 13.2107L9.10754 12.9469L8.44297 14.2013C8.43463 14.2173 8.41716 14.2265 8.39928 14.2237L7.70651 14.1215C7.67712 14.1171 7.66122 14.0849 7.67512 14.059L10.0279 9.59207C10.0367 9.57575 10.0541 9.56661 10.072 9.56939L10.9368 9.6971C10.9543 9.69949 10.9685 9.71302 10.9722 9.73053L12.0121 14.698C12.018 14.727 11.9926 14.754 11.9636 14.7496Z" fill="#006622"/>
      <path d="M13.482 15.6183C10.7549 15.6183 8.54395 17.8328 8.54395 20.5642C8.54395 23.2955 10.7549 25.51 13.482 25.51C16.2089 25.51 18.42 23.2955 18.42 20.5642C18.42 17.8328 16.2089 15.6183 13.482 15.6183ZM13.482 25.2841C10.8793 25.2841 8.76997 23.171 8.76997 20.5645C8.76997 17.958 10.8797 15.845 13.482 15.845C16.0841 15.845 18.1939 17.9585 18.1939 20.5645C18.1939 23.1705 16.0841 25.2841 13.482 25.2841Z" fill="#006622"/>
      <path d="M13.4815 18.2068C12.8527 18.2068 12.2616 18.4519 11.8171 18.8971C11.3722 19.3427 11.1279 19.9348 11.1279 20.5642C11.1279 21.1936 11.3726 21.7864 11.8171 22.2313C12.262 22.6768 12.8531 22.9219 13.4815 22.9219C14.1099 22.9219 14.7018 22.6765 15.1459 22.2313C15.5908 21.7861 15.8356 21.194 15.8356 20.5642C15.8356 19.9344 15.5904 19.3423 15.1459 18.8971C14.7014 18.4515 14.1104 18.2068 13.4815 18.2068Z" fill="#006622"/>
      <path d="M17.3205 21.0829V20.0457C17.3205 19.9072 17.4338 19.7947 17.5715 19.7947H18.053C17.935 19.0865 17.6569 18.4332 17.2574 17.8718L16.9173 18.2123C16.82 18.3102 16.6599 18.3102 16.5626 18.2123L15.8309 17.479C15.7332 17.3816 15.7332 17.2216 15.8309 17.1241L16.1709 16.7832C15.6108 16.3829 14.9578 16.1045 14.2507 15.9863V16.4684C14.2507 16.6069 14.1383 16.7199 14.0001 16.7199H12.9644C12.8263 16.7199 12.7138 16.6069 12.7138 16.4684V15.9863C12.0067 16.1045 11.3541 16.3829 10.7936 16.7832L11.1336 17.1241C11.2313 17.222 11.2313 17.382 11.1336 17.479L10.4015 18.2123C10.3042 18.3102 10.1445 18.3102 10.0472 18.2123L9.70678 17.8718C9.30717 18.4328 9.0295 19.0869 8.91113 19.795H9.39297C9.53081 19.795 9.64363 19.9077 9.64363 20.0462V21.0833C9.64363 21.2218 9.53081 21.3345 9.39297 21.3345H8.91113C9.02911 22.0426 9.30717 22.6963 9.70678 23.2577L10.0472 22.9171C10.1449 22.8193 10.3046 22.8193 10.4015 22.9171L11.1336 23.6501C11.2313 23.7479 11.2313 23.9079 11.1336 24.0053L10.7936 24.3459C11.3537 24.7462 12.0063 25.0246 12.7134 25.1428V24.6607C12.7134 24.5222 12.8258 24.4088 12.9641 24.4088H13.9996C14.1379 24.4088 14.2504 24.5222 14.2504 24.6607V25.1428C14.9573 25.0246 15.61 24.7462 16.1702 24.3459L15.8305 24.0053C15.7328 23.9079 15.7328 23.7475 15.8305 23.6501L16.5622 22.9171C16.6599 22.8193 16.8196 22.8193 16.9169 22.9171L17.257 23.2573C17.6565 22.6963 17.9347 22.0426 18.0526 21.3345H17.5712C17.4329 21.3345 17.3205 21.2214 17.3205 21.0829ZM14.5165 17.5189L14.6308 17.2416C14.6686 17.1497 14.7735 17.1067 14.8653 17.1445C14.9566 17.1822 14.9999 17.2873 14.9621 17.3788L14.8477 17.6561C14.8192 17.7254 14.752 17.7671 14.6817 17.7671C14.6591 17.7671 14.636 17.7627 14.6134 17.7536C14.5216 17.7158 14.4783 17.6107 14.5165 17.5189ZM12.0989 17.1445C12.1903 17.1067 12.2951 17.1497 12.3328 17.2416L12.4477 17.5189C12.4854 17.6107 12.4421 17.7158 12.3504 17.7536C12.3282 17.7627 12.3051 17.7671 12.2821 17.7671C12.2118 17.7671 12.145 17.7258 12.1163 17.6561L12.0016 17.3788C11.9639 17.2873 12.0071 17.1822 12.0989 17.1445ZM10.585 21.9479L10.3463 22.047C10.3237 22.0562 10.3006 22.0606 10.2776 22.0606C10.2073 22.0606 10.1406 22.0192 10.112 21.9499C10.0742 21.858 10.1175 21.753 10.2089 21.7151L10.4476 21.6162C10.5393 21.5783 10.6443 21.6217 10.682 21.7132C10.7198 21.8051 10.6768 21.9102 10.585 21.9479ZM10.682 19.4151C10.6533 19.4843 10.5867 19.5261 10.5163 19.5261C10.4934 19.5261 10.4703 19.5214 10.4476 19.5122L10.2089 19.4131C10.1175 19.3754 10.0742 19.2702 10.112 19.1784C10.1497 19.0869 10.2546 19.0435 10.3463 19.0813L10.585 19.1808C10.6768 19.2185 10.7198 19.3236 10.682 19.4151ZM12.4477 23.6098L12.3328 23.8871C12.3043 23.9564 12.2375 23.9982 12.1672 23.9982C12.1442 23.9982 12.1211 23.9938 12.0989 23.9846C12.0071 23.9469 11.9639 23.8418 12.0016 23.7499L12.1163 23.4726C12.1541 23.3807 12.259 23.3373 12.3504 23.3755C12.4421 23.4133 12.4854 23.5183 12.4477 23.6098ZM14.8653 23.9842C14.8426 23.9934 14.8196 23.9978 14.7965 23.9978C14.7262 23.9978 14.6595 23.956 14.6308 23.8868L14.5165 23.6095C14.4783 23.5179 14.5216 23.4129 14.6134 23.3752C14.7052 23.3369 14.81 23.3803 14.8477 23.4721L14.9621 23.7495C14.9999 23.8414 14.9566 23.9465 14.8653 23.9842ZM15.9815 21.6221C15.8448 21.9455 15.6493 22.236 15.3999 22.4854C15.1508 22.7353 14.8609 22.9311 14.5379 23.0679C14.2034 23.2095 13.8479 23.2812 13.4816 23.2812C13.1155 23.2812 12.7603 23.2095 12.4259 23.0679C12.1029 22.9311 11.8129 22.7353 11.5635 22.4854C11.3143 22.236 11.1189 21.9455 10.9823 21.6221C10.8409 21.2871 10.769 20.931 10.769 20.5642C10.769 20.1973 10.8409 19.8416 10.9823 19.5067C11.1189 19.1831 11.3143 18.8927 11.5635 18.6428C11.8125 18.3933 12.1029 18.1976 12.4259 18.0608C12.7603 17.9191 13.1155 17.8471 13.4816 17.8471C13.8479 17.8471 14.2034 17.9191 14.5379 18.0608C14.8609 18.1976 15.1508 18.3933 15.3999 18.6428C15.649 18.8927 15.8448 19.1831 15.9815 19.5067C16.1229 19.8416 16.1944 20.1973 16.1944 20.5642C16.1944 20.931 16.1229 21.2871 15.9815 21.6221ZM16.8522 21.9499C16.8232 22.0192 16.7565 22.0606 16.6861 22.0606C16.6631 22.0606 16.6401 22.0562 16.6178 22.047L16.3791 21.9479C16.2873 21.9102 16.244 21.8051 16.2822 21.7132C16.3199 21.6217 16.4247 21.5783 16.5161 21.6162L16.7548 21.7151C16.8466 21.753 16.8899 21.858 16.8522 21.9499ZM16.7548 19.4131L16.5161 19.5122C16.4939 19.5214 16.4708 19.5257 16.4478 19.5257C16.3775 19.5257 16.3107 19.4843 16.2822 19.4151C16.244 19.3232 16.2873 19.2182 16.3791 19.1803L16.6178 19.0813C16.7091 19.0435 16.8141 19.0869 16.8522 19.1788C16.8899 19.2702 16.8466 19.3754 16.7548 19.4131Z" fill="#006622"/>
      <path d="M19.0227 14.8817C17.9453 14.8817 16.9487 15.2275 16.1367 15.8143C16.2083 15.8549 16.2794 15.8967 16.3493 15.9404C17.1091 15.4157 18.0299 15.1082 19.0227 15.1082C21.6253 15.1082 23.7346 17.2216 23.7346 19.8277C23.7346 22.4337 21.6249 24.5472 19.0227 24.5472C18.4724 24.5472 17.9438 24.4529 17.4528 24.279C17.3964 24.3395 17.3388 24.3988 17.2795 24.4564C17.8214 24.6618 18.4089 24.7736 19.0227 24.7736C21.7496 24.7736 23.9606 22.5591 23.9606 19.8277C23.9606 17.0963 21.7496 14.8817 19.0227 14.8817Z" fill="#006622"/>
      <path d="M19.0225 22.1855C19.6513 22.1855 20.2428 21.94 20.6869 21.4948C21.1318 21.0496 21.3765 20.4575 21.3765 19.8277C21.3765 19.1979 21.1314 18.6058 20.6869 18.1606C20.2424 17.715 19.6513 17.4703 19.0225 17.4703C18.6932 17.4703 18.3742 17.5375 18.0811 17.6657C18.611 18.5056 18.9177 19.4999 18.9177 20.5645C18.9177 21.1195 18.8342 21.6559 18.6789 22.1608C18.7917 22.1775 18.9061 22.1855 19.0225 22.1855Z" fill="#006622"/>
      <path d="M22.8608 20.3461V19.3088C22.8608 19.1704 22.9741 19.0574 23.1123 19.0574H23.5938C23.4758 18.3496 23.1977 17.6959 22.7981 17.1349L22.458 17.4755C22.3607 17.5733 22.2006 17.5733 22.1033 17.4755L21.3716 16.7422C21.2739 16.6444 21.2739 16.4844 21.3716 16.3873L21.7116 16.0464C21.1516 15.6461 20.4985 15.3676 19.7914 15.2494V15.7316C19.7914 15.8701 19.6791 15.9831 19.5408 15.9831H18.5052C18.367 15.9831 18.2546 15.8701 18.2546 15.7316V15.2494C17.5836 15.3616 16.9611 15.6183 16.4209 15.9863C16.9874 16.3523 17.4815 16.8202 17.8775 17.3648C17.9069 17.3506 17.9372 17.3374 17.9673 17.3247C18.3018 17.1831 18.6569 17.111 19.0232 17.111C19.3895 17.111 19.745 17.1831 20.0795 17.3247C20.4023 17.4615 20.6924 17.6573 20.9414 17.9067C21.1909 18.1566 21.3863 18.4471 21.523 18.7706C21.6644 19.1056 21.7359 19.4613 21.7359 19.8281C21.7359 20.1949 21.664 20.5511 21.523 20.886C21.3863 21.2096 21.1909 21.4999 20.9414 21.7494C20.6924 21.9993 20.4023 22.195 20.0795 22.3319C19.745 22.4736 19.3895 22.5451 19.0232 22.5451C18.8666 22.5451 18.7122 22.5321 18.5609 22.5058C18.3181 23.1416 17.959 23.7209 17.5105 24.217C17.7501 24.3001 17.9991 24.3634 18.2546 24.4064V23.9242C18.2546 23.7861 18.367 23.6727 18.5052 23.6727H19.5408C19.6791 23.6727 19.7914 23.7861 19.7914 23.9242V24.4064C20.4985 24.2882 21.1512 24.0097 21.7116 23.6094L21.3716 23.2689C21.2739 23.171 21.2739 23.0111 21.3716 22.9136L22.1033 22.1807C22.2011 22.0828 22.3607 22.0828 22.458 22.1807L22.7981 22.5209C23.1977 21.9599 23.4758 21.3062 23.5938 20.598H23.1123C22.9741 20.598 22.8608 20.4845 22.8608 20.3461ZM17.8907 17.0167C17.8685 17.0259 17.8454 17.0303 17.8224 17.0303C17.7521 17.0303 17.6853 16.9885 17.6568 16.9193L17.5419 16.642C17.5042 16.5504 17.5475 16.4454 17.6392 16.4077C17.7306 16.3694 17.8355 16.4128 17.8733 16.5046L17.988 16.782C18.0257 16.8739 17.9825 16.979 17.8907 17.0167ZM20.5025 16.642L20.388 16.9193C20.3595 16.9885 20.2923 17.0303 20.222 17.0303C20.1994 17.0303 20.1763 17.0259 20.1537 17.0167C20.0619 16.979 20.0186 16.8739 20.0568 16.782L20.1712 16.5046C20.209 16.4128 20.3138 16.3694 20.4056 16.4077C20.4969 16.4454 20.5402 16.5504 20.5025 16.642ZM20.4056 23.2478C20.3829 23.2569 20.3599 23.2613 20.3368 23.2613C20.2665 23.2613 20.1998 23.2196 20.1712 23.1503L20.0568 22.873C20.0186 22.7811 20.0619 22.6761 20.1537 22.6382C20.2455 22.6005 20.3504 22.6438 20.388 22.7358L20.5025 23.0131C20.5402 23.1045 20.4969 23.2096 20.4056 23.2478ZM22.3925 21.2131C22.3635 21.2823 22.2968 21.3236 22.2265 21.3236C22.2035 21.3236 22.1804 21.3193 22.1582 21.3102L21.9194 21.2111C21.8277 21.1733 21.7843 21.0682 21.8225 20.9764C21.8602 20.8849 21.965 20.8415 22.0565 20.8793L22.2952 20.9783C22.3869 21.0161 22.4303 21.1212 22.3925 21.2131ZM22.2952 18.6766L22.0565 18.7757C22.0342 18.7849 22.0111 18.7893 21.9881 18.7893C21.9178 18.7893 21.8511 18.7479 21.8225 18.6786C21.7843 18.5867 21.8277 18.4817 21.9194 18.4439L22.1582 18.3449C22.2495 18.307 22.3544 18.3504 22.3925 18.442C22.4303 18.5338 22.3869 18.6389 22.2952 18.6766Z" fill="#006622"/>
    </g>
  </g>
  <defs>
    <clipPath id="clip0_20_24560">
      <rect width="23.9871" height="25.03" fill="white" transform="translate(0.00683594 0.480011)"/>
    </clipPath>
  </defs>
</svg>