<svg xmlns="http://www.w3.org/2000/svg" width="44" height="13" viewBox="0 0 44 13" fill="none">
  <g filter="url(#filter0_d_200_6025)">
    <path d="M1 11.8291V0.159544H5.32427C6.14058 0.159544 6.81901 0.292498 7.35954 0.558404C7.90375 0.820513 8.31007 1.17949 8.5785 1.63533C8.85061 2.09117 8.98666 2.60779 8.98666 3.18519C8.98666 3.66002 8.89841 4.06648 8.72191 4.40456C8.54541 4.73884 8.30824 5.01045 8.01039 5.21937C7.71254 5.4283 7.37977 5.57835 7.01206 5.66952V5.78348C7.41286 5.80627 7.79712 5.93352 8.16483 6.16524C8.53622 6.39316 8.83958 6.71605 9.07491 7.1339C9.31024 7.55176 9.42791 8.05698 9.42791 8.64957C9.42791 9.25356 9.28634 9.79677 9.00321 10.2792C8.72007 10.7578 8.29353 11.1358 7.72358 11.4131C7.15363 11.6904 6.43659 11.8291 5.57247 11.8291H1ZM3.04631 10.0627H5.24705C5.98982 10.0627 6.52484 9.91643 6.8521 9.62393C7.18304 9.32764 7.34851 8.94777 7.34851 8.48433C7.34851 8.13865 7.26578 7.82716 7.10031 7.54986C6.93484 7.26876 6.6995 7.04843 6.3943 6.88889C6.08911 6.72555 5.72507 6.64388 5.30221 6.64388H3.04631V10.0627ZM3.04631 5.12251H5.07055C5.42355 5.12251 5.74162 5.05603 6.02476 4.92308C6.30789 4.78632 6.53036 4.59449 6.69215 4.34758C6.85762 4.09687 6.94035 3.80057 6.94035 3.45869C6.94035 3.00665 6.78592 2.63438 6.47704 2.34188C6.17184 2.04938 5.71772 1.90313 5.11467 1.90313H3.04631V5.12251Z" fill="url(#paint0_linear_200_6025)"/>
    <path d="M18.7756 3.88604C18.6836 3.57835 18.5568 3.30294 18.395 3.05983C18.2369 2.81292 18.0457 2.60209 17.8214 2.42735C17.6007 2.25261 17.347 2.12156 17.0602 2.03419C16.7734 1.94302 16.4608 1.89744 16.1225 1.89744C15.5158 1.89744 14.9753 2.05508 14.5009 2.37037C14.0266 2.68566 13.6534 3.1491 13.3813 3.76068C13.1128 4.36847 12.9786 5.10921 12.9786 5.98291C12.9786 6.8642 13.1128 7.61064 13.3813 8.22222C13.6497 8.83381 14.0229 9.29915 14.5009 9.61823C14.979 9.93352 15.5342 10.0912 16.1667 10.0912C16.7403 10.0912 17.2367 9.97721 17.6559 9.74929C18.0787 9.52137 18.4042 9.19848 18.6322 8.78063C18.8601 8.35897 18.9741 7.86515 18.9741 7.29915L19.4374 7.37322H16.3707V5.7208H20.9542V7.12251C20.9542 8.12156 20.7483 8.98575 20.3365 9.7151C19.9247 10.4444 19.3584 11.0066 18.6377 11.4017C17.917 11.793 17.0896 11.9886 16.1556 11.9886C15.115 11.9886 14.2012 11.7474 13.4143 11.265C12.6311 10.7787 12.0189 10.0893 11.5776 9.19658C11.1401 8.30009 10.9213 7.23647 10.9213 6.0057C10.9213 5.06363 11.05 4.22222 11.3074 3.48148C11.5684 2.74074 11.9325 2.11206 12.3995 1.59544C12.8665 1.07502 13.4143 0.679962 14.0431 0.410256C14.6719 0.136752 15.3559 0 16.095 0C16.7201 0 17.3029 0.0949668 17.8434 0.2849C18.3839 0.471035 18.8638 0.736942 19.283 1.08262C19.7059 1.4283 20.0533 1.83856 20.3255 2.31339C20.5976 2.78822 20.7759 3.31244 20.8605 3.88604H18.7756Z" fill="url(#paint1_linear_200_6025)"/>
    <path d="M26.5402 12C25.7129 12 24.9958 11.812 24.3891 11.4359C23.7824 11.0598 23.3117 10.5337 22.9771 9.85755C22.6462 9.18139 22.4807 8.39126 22.4807 7.48718C22.4807 6.5831 22.6462 5.79107 22.9771 5.11111C23.3117 4.43115 23.7824 3.90313 24.3891 3.52707C24.9958 3.151 25.7129 2.96296 26.5402 2.96296C27.3676 2.96296 28.0846 3.151 28.6913 3.52707C29.298 3.90313 29.7669 4.43115 30.0978 5.11111C30.4324 5.79107 30.5997 6.5831 30.5997 7.48718C30.5997 8.39126 30.4324 9.18139 30.0978 9.85755C29.7669 10.5337 29.298 11.0598 28.6913 11.4359C28.0846 11.812 27.3676 12 26.5402 12ZM26.5512 10.3476C26.9998 10.3476 27.3749 10.2203 27.6764 9.96581C27.978 9.7075 28.2023 9.36182 28.3493 8.92877C28.5001 8.49573 28.5755 8.0133 28.5755 7.48148C28.5755 6.94587 28.5001 6.46154 28.3493 6.02849C28.2023 5.59164 27.978 5.24406 27.6764 4.98575C27.3749 4.72745 26.9998 4.59829 26.5512 4.59829C26.0916 4.59829 25.7092 4.72745 25.404 4.98575C25.1025 5.24406 24.8763 5.59164 24.7256 6.02849C24.5785 6.46154 24.5049 6.94587 24.5049 7.48148C24.5049 8.0133 24.5785 8.49573 24.7256 8.92877C24.8763 9.36182 25.1025 9.7075 25.404 9.96581C25.7092 10.2203 26.0916 10.3476 26.5512 10.3476Z" fill="url(#paint2_linear_200_6025)"/>
    <path d="M34.2911 0.159544V11.8291H32.2944V0.159544H34.2911Z" fill="url(#paint3_linear_200_6025)"/>
    <path d="M39.4882 11.9829C38.8226 11.9829 38.227 11.8063 37.7011 11.453C37.1753 11.0997 36.7598 10.5869 36.4546 9.91453C36.1494 9.24217 35.9968 8.42545 35.9968 7.46439C35.9968 6.49193 36.1512 5.67142 36.4601 5.00285C36.7727 4.33048 37.1937 3.82336 37.7232 3.48148C38.2527 3.1358 38.8429 2.96296 39.4937 2.96296C39.9901 2.96296 40.3983 3.05033 40.7182 3.22507C41.0381 3.39601 41.2918 3.60304 41.4793 3.84615C41.6669 4.08547 41.8121 4.31149 41.9151 4.52422H41.9978V0.159544H44V11.8291H42.0364V10.4501H41.9151C41.8121 10.6629 41.6632 10.8889 41.4683 11.1282C41.2734 11.3637 41.016 11.5651 40.6961 11.7322C40.3762 11.8993 39.9736 11.9829 39.4882 11.9829ZM40.0453 10.2906C40.4681 10.2906 40.8285 10.1728 41.1263 9.93732C41.4242 9.69801 41.6503 9.36562 41.8048 8.94017C41.9592 8.51472 42.0364 8.01899 42.0364 7.45299C42.0364 6.88699 41.9592 6.39506 41.8048 5.97721C41.654 5.55935 41.4297 5.23457 41.1319 5.00285C40.8377 4.77113 40.4755 4.65527 40.0453 4.65527C39.6003 4.65527 39.229 4.77493 38.9311 5.01425C38.6333 5.25356 38.409 5.58405 38.2582 6.0057C38.1074 6.42735 38.0321 6.90978 38.0321 7.45299C38.0321 8 38.1074 8.48813 38.2582 8.91738C38.4126 9.34283 38.6388 9.67901 38.9366 9.92593C39.2382 10.169 39.6077 10.2906 40.0453 10.2906Z" fill="url(#paint4_linear_200_6025)"/>
  </g>
  <defs>
    <filter id="filter0_d_200_6025" x="0" y="0" width="44" height="13" filterUnits="userSpaceOnUse" color-interpolation-filters="sRGB">
      <feFlood flood-opacity="0" result="BackgroundImageFix"/>
      <feColorMatrix in="SourceAlpha" type="matrix" values="0 0 0 0 0 0 0 0 0 0 0 0 0 0 0 0 0 0 127 0" result="hardAlpha"/>
      <feOffset dx="-1" dy="1"/>
      <feComposite in2="hardAlpha" operator="out"/>
      <feColorMatrix type="matrix" values="0 0 0 0 0.827451 0 0 0 0 0.482353 0 0 0 0 0.0235294 0 0 0 1 0"/>
      <feBlend mode="normal" in2="BackgroundImageFix" result="effect1_dropShadow_200_6025"/>
      <feBlend mode="normal" in="SourceGraphic" in2="effect1_dropShadow_200_6025" result="shape"/>
    </filter>
    <linearGradient id="paint0_linear_200_6025" x1="1.50371" y1="-0.205096" x2="39.8926" y2="11.1319" gradientUnits="userSpaceOnUse">
      <stop stop-color="#FDF35F"/>
      <stop offset="1" stop-color="#EFCC28"/>
    </linearGradient>
    <linearGradient id="paint1_linear_200_6025" x1="1.50371" y1="-0.205096" x2="39.8926" y2="11.1319" gradientUnits="userSpaceOnUse">
      <stop stop-color="#FDF35F"/>
      <stop offset="1" stop-color="#EFCC28"/>
    </linearGradient>
    <linearGradient id="paint2_linear_200_6025" x1="1.50371" y1="-0.205096" x2="39.8926" y2="11.1319" gradientUnits="userSpaceOnUse">
      <stop stop-color="#FDF35F"/>
      <stop offset="1" stop-color="#EFCC28"/>
    </linearGradient>
    <linearGradient id="paint3_linear_200_6025" x1="1.50371" y1="-0.205096" x2="39.8926" y2="11.1319" gradientUnits="userSpaceOnUse">
      <stop stop-color="#FDF35F"/>
      <stop offset="1" stop-color="#EFCC28"/>
    </linearGradient>
    <linearGradient id="paint4_linear_200_6025" x1="1.50371" y1="-0.205096" x2="39.8926" y2="11.1319" gradientUnits="userSpaceOnUse">
      <stop stop-color="#FDF35F"/>
      <stop offset="1" stop-color="#EFCC28"/>
    </linearGradient>
  </defs>
</svg>