<svg xmlns="http://www.w3.org/2000/svg" width="24" height="28" viewBox="0 0 24 28" fill="none">
  <g clip-path="url(#clip0_20_24590)">
    <mask id="mask0_20_24590" style="mask-type:luminance" maskUnits="userSpaceOnUse" x="1" y="0" width="23" height="28">
      <path d="M1.10898 0.299988H23.959V27.72H1.10898V0.299988Z" fill="white"/>
    </mask>
    <g mask="url(#mask0_20_24590)">
      <path d="M8.17551 1.54014C8.33573 0.711629 9.14506 0.168704 9.98247 0.327209L22.7062 2.73894C23.5435 2.8979 24.0924 3.69818 23.9317 4.52714L20.4145 22.6909L17.5289 3.78517C17.4538 3.29326 17.202 2.84461 16.8195 2.52214C16.441 2.20285 15.9604 2.02704 15.465 2.02704C15.361 2.02704 15.255 2.03479 15.1515 2.05072L7.86523 3.13931L8.17551 1.54014ZM21.0764 6.35632C21.0764 6.35632 22.6786 5.88535 22.9898 5.01131C23.161 4.54399 22.8705 4.0366 22.3784 3.94276C21.9364 3.8585 21.6229 4.0457 21.4457 4.46838C21.4397 4.01154 21.2196 3.72186 20.7777 3.6376C20.2856 3.54331 19.8247 3.90723 19.8081 4.4037C19.7676 5.32968 21.0764 6.35632 21.0764 6.35632Z" fill="#006622"/>
      <path d="M10.4479 13.0192C10.7108 13.5771 11.2798 14.673 11.7126 15.5115L9.90747 15.7748C10.169 14.4876 10.3651 13.5513 10.4479 13.0192ZM10.4479 13.0192C10.7108 13.5771 11.2798 14.673 11.7126 15.5115L9.90747 15.7748C10.169 14.4876 10.3651 13.5513 10.4479 13.0192ZM2.42369 4.49633L15.233 2.58289C16.0764 2.45718 16.8632 3.03108 16.9903 3.8655L20.071 24.0503C20.1985 24.8848 19.6185 25.6632 18.7746 25.7888L5.96532 27.7027C5.12147 27.8284 4.33515 27.2545 4.20763 26.4202L1.12683 6.23579C0.999773 5.40137 1.5803 4.6225 2.42369 4.49633ZM14.2054 6.40113C14.4311 6.36833 14.5978 6.27587 14.7069 6.12966C14.6552 6.42299 14.5166 6.62021 14.4352 6.71404C14.4163 6.7359 14.4352 6.76961 14.4637 6.76551L15.0097 6.6858L15.5557 6.60609C15.5848 6.602 15.5925 6.56465 15.5677 6.5487C15.4623 6.48175 15.2722 6.33281 15.1377 6.06636C15.2842 6.17567 15.4706 6.21667 15.6966 6.18341C15.8302 6.16428 15.9475 6.09186 16.0428 5.98847C16.3932 5.60906 16.2914 5.0051 15.8416 4.74958C14.8988 4.21303 14.5729 3.75254 14.5729 3.75254C14.5729 3.75254 14.3943 4.28637 13.6485 5.06841C13.2921 5.4419 13.3708 6.04905 13.8161 6.31276C13.9375 6.38473 14.072 6.42072 14.2054 6.40113ZM8.38226 18.6643L9.34765 18.5236C9.37113 18.5199 9.38955 18.5031 9.39415 18.4803L9.77396 16.6839L12.1035 16.3446L12.9689 17.9593C12.98 17.9797 13.0029 17.9912 13.0265 17.988L13.9288 17.8568C13.967 17.8513 13.9878 17.8103 13.9697 17.7761L10.9037 12.0272C10.8931 12.0062 10.8696 11.9949 10.8462 11.9979L9.7201 12.1625C9.69662 12.1657 9.6782 12.1829 9.6736 12.2057L8.3192 18.5983C8.3109 18.6356 8.34405 18.6698 8.38226 18.6643ZM5.40044 25.7966C6.34282 26.3331 6.66922 26.7937 6.66922 26.7937C6.66922 26.7937 6.8474 26.2598 7.59365 25.4777C7.94998 25.1042 7.87125 24.4971 7.42607 24.2334C7.30408 24.1615 7.17103 24.1255 7.03706 24.145C6.81194 24.1778 6.64483 24.2703 6.53618 24.4165C6.58774 24.1232 6.72586 23.9264 6.8078 23.8321C6.82667 23.8098 6.8078 23.7765 6.77926 23.7807L6.23326 23.8604L5.68726 23.94C5.65826 23.9442 5.64996 23.9815 5.67483 23.9975C5.78025 24.0645 5.97039 24.2129 6.10527 24.4798C5.95887 24.3705 5.77243 24.3295 5.54639 24.3628C5.41242 24.3818 5.29502 24.4543 5.19973 24.5577C4.84985 24.9371 4.95066 25.541 5.40044 25.7966ZM11.7126 15.5115L9.90747 15.7748C10.169 14.4876 10.3651 13.5513 10.4479 13.0192C10.7108 13.5771 11.2798 14.673 11.7126 15.5115Z" fill="#006622"/>
    </g>
  </g>
  <defs>
    <clipPath id="clip0_20_24590">
      <rect width="23.9925" height="27.42" fill="white" transform="translate(0.00390625 0.299988)"/>
    </clipPath>
  </defs>
</svg>