<svg width="32" height="33" viewBox="0 0 32 33" fill="none" xmlns="http://www.w3.org/2000/svg">
<path d="M16.0002 32.5C24.8368 32.5 32.0002 25.3366 32.0002 16.5C32.0002 7.66344 24.8368 0.5 16.0002 0.5C7.16369 0.5 0.000244141 7.66344 0.000244141 16.5C0.000244141 25.3366 7.16369 32.5 16.0002 32.5Z" fill="#FFE81A"/>
<mask id="mask0_203_6661" style="mask-type:luminance" maskUnits="userSpaceOnUse" x="8" y="8" width="17" height="17">
<path d="M24.0002 8.5H8.00024V24.5H24.0002V8.5Z" fill="white"/>
</mask>
<g mask="url(#mask0_203_6661)">
<path d="M19.0803 10.4935C18.7536 10.1669 18.227 10.1669 17.9003 10.4935L12.3603 16.0335C12.1003 16.2935 12.1003 16.7135 12.3603 16.9735L17.9003 22.5135C18.227 22.8402 18.7536 22.8402 19.0803 22.5135C19.407 22.1869 19.407 21.6602 19.0803 21.3335L14.2536 16.5002L19.0869 11.6669C19.4069 11.3469 19.407 10.8135 19.0803 10.4935Z" fill="#00432A"/>
</g>
</svg>
