<svg xmlns="http://www.w3.org/2000/svg" width="24" height="24" viewBox="0 0 24 24" fill="none">
  <path d="M6.80937 1.50063C6.46457 1.51574 6.13793 1.65945 5.89384 1.90346C5.82235 1.97475 5.75942 2.05415 5.70634 2.14003C5.67446 2.19159 5.63054 2.23465 5.57837 2.26552C5.5262 2.29638 5.46732 2.31415 5.40678 2.31728C5.34613 2.32144 5.2854 2.31035 5.23013 2.28502C5.17486 2.25969 5.12682 2.22092 5.09038 2.17226C5.02079 2.08098 4.93112 2.00694 4.82832 1.95589C4.72552 1.90483 4.61234 1.87813 4.49756 1.87784C4.38278 1.87756 4.26947 1.90371 4.16642 1.95425C4.06337 2.0048 3.97334 2.07839 3.9033 2.16933C3.83326 2.26027 3.7851 2.36611 3.76255 2.47865C3.73999 2.5912 3.74365 2.70742 3.77323 2.81833C3.80282 2.92923 3.85754 3.03183 3.93315 3.11819C4.00877 3.20454 4.10325 3.27233 4.20927 3.3163H4.21074C4.51804 3.10992 4.87987 2.99977 5.25004 2.99989H6.00004C6.34166 3.00113 6.67642 3.09593 6.96797 3.27398C7.25952 3.45204 7.49673 3.70656 7.65385 4.0099C7.7226 3.9646 7.78708 3.91312 7.84648 3.8561C8.0433 3.65938 8.17607 3.40776 8.22739 3.13426C8.2787 2.86075 8.24615 2.57812 8.13401 2.32344C8.02188 2.06876 7.83539 1.85391 7.599 1.70708C7.36262 1.56025 7.08737 1.48828 6.80937 1.50063ZM5.25004 3.74989C4.95167 3.74989 4.66553 3.86842 4.45455 4.0794C4.24357 4.29038 4.12504 4.57653 4.12504 4.87489V7.36733C4.12502 7.4323 4.10811 7.49616 4.07597 7.55263C3.36372 8.80755 2.99306 10.2273 3.00099 11.6703C3.00893 13.1132 3.39518 14.5288 4.12119 15.7758C4.8472 17.0228 5.88759 18.0576 7.13849 18.7769C8.3894 19.4961 9.80709 19.8747 11.25 19.8749C13.1941 19.876 15.0677 19.1473 16.5 17.8329V16.8573H16.032L12.3304 16.8683H12.3157C10.9444 16.8684 9.62907 16.3247 8.65799 15.3565C7.6869 14.3883 7.13932 13.0745 7.1353 11.7033L7.12504 8.14296V4.87489C7.12504 4.57653 7.00652 4.29038 6.79554 4.0794C6.58456 3.86842 6.29841 3.74989 6.00004 3.74989H5.25004ZM5.60161 4.68813C5.67736 4.68497 5.75297 4.69716 5.8239 4.72396C5.89482 4.75076 5.9596 4.79163 6.01433 4.8441C6.06906 4.89658 6.11262 4.95957 6.14238 5.02931C6.17215 5.09904 6.18751 5.17407 6.18754 5.24989C6.18754 5.39908 6.12828 5.54215 6.02279 5.64764C5.9173 5.75313 5.77423 5.81239 5.62504 5.81239C5.47873 5.81113 5.33867 5.75291 5.23458 5.65009C5.13049 5.54726 5.07056 5.40792 5.06751 5.26164C5.06446 5.11536 5.11853 4.97364 5.21825 4.86657C5.31796 4.75949 5.45548 4.69548 5.60161 4.68813ZM5.62504 5.06239C5.57531 5.06239 5.52762 5.08215 5.49246 5.11731C5.4573 5.15247 5.43754 5.20017 5.43754 5.24989C5.43754 5.29962 5.4573 5.34731 5.49246 5.38248C5.52762 5.41764 5.57531 5.43739 5.62504 5.43739C5.67477 5.43739 5.72246 5.41764 5.75763 5.38248C5.79279 5.34731 5.81254 5.29962 5.81254 5.24989C5.81254 5.20017 5.79279 5.15247 5.75763 5.11731C5.72246 5.08215 5.67477 5.06239 5.62504 5.06239ZM3.37504 5.52089L2.2603 6.1581L3.37504 6.31777V5.52089ZM17.2662 6.37489C15.8748 6.37648 14.5408 6.92971 13.5566 7.9133C12.5725 8.89689 12.0185 10.2306 12.0162 11.622H12.7662C12.7651 11.0093 12.8891 10.4029 13.1306 9.83989C13.3721 9.27687 13.726 8.76908 14.1707 8.34766C14.6153 7.92624 15.1414 7.60005 15.7165 7.38908C16.2917 7.17811 16.9039 7.08681 17.5156 7.12077C18.1273 7.15473 18.7256 7.31323 19.2739 7.58656C19.8222 7.8599 20.3089 8.24231 20.7041 8.71036C21.0994 9.17842 21.395 9.72226 21.5727 10.3086C21.7504 10.8949 21.8065 11.5113 21.7376 12.12C21.7316 12.174 21.7206 12.2268 21.7127 12.2804C21.6969 12.3892 21.6799 12.4976 21.6563 12.6041C21.6428 12.6664 21.6245 12.7269 21.608 12.788C21.5825 12.884 21.5563 12.9791 21.5245 13.0729C21.5031 13.1359 21.4785 13.1978 21.4541 13.2604C21.4193 13.3493 21.3826 13.4371 21.3414 13.5226C21.3129 13.5841 21.2824 13.6442 21.2513 13.7042C21.207 13.7882 21.1599 13.8708 21.1106 13.9518C21.0754 14.0099 21.0397 14.0669 21.0022 14.1232C20.9482 14.2031 20.8894 14.2807 20.8309 14.3576C20.7904 14.4101 20.7506 14.4626 20.7078 14.5136C20.6422 14.5908 20.5721 14.6634 20.5013 14.7384C20.4574 14.7834 20.4159 14.8297 20.3702 14.8732C20.357 14.8856 20.3459 14.8993 20.3328 14.9105L20.866 15.4437C21.6306 14.7224 22.1611 13.7882 22.3888 12.762C22.6164 11.7358 22.5308 10.6649 22.143 9.68794C21.7552 8.71095 21.083 7.87288 20.2136 7.2822C19.3441 6.69152 18.3173 6.37545 17.2662 6.37489ZM2.80522 7.12489L1.72197 8.48061C1.57855 8.66009 1.5003 8.88294 1.50004 9.11269C1.49776 9.35889 1.58666 9.59723 1.7496 9.78182C1.91255 9.9664 2.13803 10.0842 2.38261 10.1124C2.5511 9.1156 2.88662 8.15435 3.37504 7.26918V7.12489H2.80522ZM17.1578 7.87709C16.1826 7.90529 15.2568 8.31239 14.5769 9.01199C13.897 9.71159 13.5165 10.6486 13.5162 11.6242H14.2662C14.264 11.214 14.346 10.8078 14.507 10.4305C14.668 10.0533 14.9047 9.71312 15.2024 9.43098C15.5001 9.14883 15.8525 8.93072 16.2378 8.79013C16.6231 8.64955 17.0332 8.58946 17.4426 8.61359C17.8521 8.63773 18.2522 8.74556 18.6184 8.93044C18.9845 9.11532 19.3088 9.37331 19.5713 9.68847C19.8338 10.0036 20.0289 10.3693 20.1445 10.7628C20.2601 11.1563 20.2938 11.5694 20.2435 11.9765C20.2393 12.014 20.2315 12.051 20.2259 12.0885C20.2139 12.1661 20.2007 12.2431 20.1827 12.3192C20.1725 12.3616 20.1602 12.4032 20.1482 12.4452C20.1287 12.515 20.1074 12.5835 20.0831 12.651C20.0677 12.693 20.0516 12.7343 20.0347 12.7755C20.0066 12.8427 19.9758 12.9084 19.9432 12.9733C19.924 13.0108 19.9059 13.0478 19.886 13.0853C19.8459 13.1577 19.8011 13.2273 19.7549 13.2963C19.7373 13.3222 19.722 13.3499 19.7037 13.3754C19.6372 13.4684 19.5653 13.5574 19.4883 13.642C19.4722 13.66 19.4536 13.6756 19.4371 13.6933C19.3838 13.7488 19.3315 13.8056 19.2737 13.8559L19.7989 14.381C19.8131 14.3682 19.8282 14.3568 19.8421 14.3436C19.8837 14.3039 19.9225 14.2626 19.9622 14.2213C20.0185 14.1636 20.0749 14.1045 20.1255 14.0434C20.163 13.9991 20.2002 13.954 20.2339 13.9079C20.2823 13.8456 20.3292 13.7823 20.3731 13.7174C20.4065 13.6664 20.4372 13.6175 20.4676 13.568C20.5081 13.5015 20.547 13.4334 20.5833 13.3644C20.6103 13.3138 20.6362 13.2627 20.6609 13.2106C20.6943 13.1393 20.7243 13.0658 20.7532 12.9923C20.7738 12.9398 20.7949 12.8881 20.8133 12.8349C20.8399 12.7569 20.8615 12.6774 20.8829 12.5976C20.8967 12.5462 20.9122 12.4959 20.9239 12.4437C20.9437 12.3549 20.9576 12.2642 20.9707 12.1735C20.9775 12.1289 20.9871 12.0844 20.992 12.0394C21.0075 11.9025 21.0156 11.7649 21.0162 11.6271C21.0164 11.1254 20.9159 10.6287 20.7207 10.1665C20.5255 9.70436 20.2395 9.28604 19.8798 8.93637C19.52 8.58669 19.0937 8.31277 18.6261 8.13082C18.1586 7.94887 17.6593 7.86259 17.1578 7.87709ZM7.87944 9.06874L7.88676 11.7011C7.89011 12.8737 8.35828 13.9972 9.18864 14.8252C10.019 15.6533 11.1438 16.1183 12.3165 16.1183H12.3296L15.4468 16.1102L16.5 16.1073V15.3749H14.25V15.3676H13.8304H13.815C12.444 15.3674 11.1289 14.8238 10.158 13.8558C9.18708 12.8877 8.63952 11.5743 8.6353 10.2033V9.84657L7.87944 9.06874ZM17.2002 9.37709C16.6151 9.39424 16.0597 9.63874 15.6519 10.0587C15.2442 10.4787 15.0161 11.041 15.0162 11.6264L16.875 11.6249H16.8912C16.9904 11.6251 17.0854 11.6646 17.1556 11.7348L18.7413 13.3205C18.8046 13.2658 18.8647 13.2076 18.9214 13.1461C18.9361 13.1304 18.9489 13.1132 18.9632 13.0971C19.0063 13.0476 19.048 12.9972 19.0862 12.9447C19.1046 12.9196 19.1202 12.8926 19.1375 12.8671C19.1682 12.8206 19.198 12.7741 19.2254 12.7257C19.2419 12.6965 19.2573 12.6664 19.2723 12.6364C19.2973 12.5886 19.3196 12.5403 19.3396 12.4913C19.3524 12.4598 19.3654 12.4287 19.377 12.3969C19.3957 12.3462 19.4118 12.2941 19.4268 12.2416C19.4358 12.2101 19.4449 12.1794 19.4524 12.1471C19.4663 12.0897 19.4764 12.0313 19.4854 11.9728C19.4899 11.9447 19.4959 11.9171 19.4993 11.8886C19.51 11.8016 19.5156 11.714 19.5162 11.6264C19.5162 11.3253 19.4558 11.0273 19.3386 10.75C19.2214 10.4728 19.0497 10.2218 18.8338 10.0121C18.6178 9.80234 18.362 9.63807 18.0814 9.529C17.8008 9.41993 17.5012 9.36827 17.2002 9.37709ZM9.40873 10.6434C9.50828 11.6167 9.92818 12.5294 10.6025 13.2382C11.2769 13.947 12.1675 14.4118 13.1346 14.5597L11.0018 12.2753C10.9954 12.2697 10.9869 12.2674 10.9812 12.2614L9.40873 10.6434ZM12.1194 12.3749L12.8628 13.1718H16.5V12.3771C15.9083 12.3805 15.4757 12.3816 15.1634 12.3749H12.1194ZM13.5645 13.9218L14.2142 14.6176L16.5 14.6117V13.9218H13.5645ZM12 20.5905C11.8763 20.601 11.7503 20.6021 11.625 20.6073V21.3749C11.6251 21.4607 11.5958 21.5439 11.542 21.6107C11.4881 21.6774 11.413 21.7237 11.3291 21.7418L10.8941 21.8356C10.706 21.8772 10.5288 21.9578 10.3738 22.0722C10.2189 22.1867 10.0897 22.3324 9.99467 22.4999H12.9412C12.7823 22.2301 12.5357 22.023 12.2425 21.9132C12.1712 21.8863 12.1098 21.8383 12.0665 21.7756C12.0232 21.7129 12 21.6386 12 21.5624V20.5905Z" fill="#185745"/>
</svg>