<svg xmlns="http://www.w3.org/2000/svg" width="22" height="22" viewBox="0 0 22 22" fill="none">
  <path fill-rule="evenodd" clip-rule="evenodd" d="M10.75 0.250163C8.922 0.250163 7.411 0.411163 6.248 0.607163L6.114 0.630163C5.104 0.799163 4.264 0.940163 3.607 1.74816C3.187 2.26716 3.05 2.82816 3.019 3.45316L2.527 3.61716C2.064 3.77116 1.657 3.90716 1.336 4.05716C0.988 4.21916 0.669 4.42716 0.425 4.76616C0.181 5.10516 0.084 5.47316 0.04 5.85416C-3.72529e-08 6.20716 0 6.63416 0 7.12316V7.26816C0 7.67016 -2.79397e-08 8.02516 0.03 8.32216C0.062 8.64316 0.133 8.95616 0.31 9.25816C0.489 9.56116 0.727 9.77516 0.993 9.95916C1.238 10.1292 1.548 10.3022 1.9 10.4972L4.54 11.9642C5.08 13.0252 5.821 13.9712 6.84 14.6542C7.727 15.2502 8.792 15.6242 10.053 15.7232C10.0191 15.8116 10.0011 15.9054 10 16.0002V17.7502H8.57C8.16542 17.7502 7.77334 17.8904 7.46047 18.1469C7.14761 18.4034 6.9333 18.7604 6.854 19.1572L6.635 20.2502H4.75C4.55109 20.2502 4.36032 20.3292 4.21967 20.4698C4.07902 20.6105 4 20.8013 4 21.0002C4 21.1991 4.07902 21.3898 4.21967 21.5305C4.36032 21.6711 4.55109 21.7502 4.75 21.7502H16.75C16.9489 21.7502 17.1397 21.6711 17.2803 21.5305C17.421 21.3898 17.5 21.1991 17.5 21.0002C17.5 20.8013 17.421 20.6105 17.2803 20.4698C17.1397 20.3292 16.9489 20.2502 16.75 20.2502H14.865L14.646 19.1572C14.5667 18.7604 14.3524 18.4034 14.0395 18.1469C13.7267 17.8904 13.3346 17.7502 12.93 17.7502H11.5V16.0002C11.4989 15.9054 11.4809 15.8116 11.447 15.7232C12.708 15.6232 13.773 15.2502 14.66 14.6552C15.68 13.9712 16.42 13.0252 16.96 11.9642L19.6 10.4972C19.952 10.3022 20.262 10.1292 20.507 9.95916C20.772 9.77516 21.011 9.56116 21.189 9.25916C21.367 8.95616 21.439 8.64316 21.47 8.32216C21.5 8.02516 21.5 7.67016 21.5 7.26816V7.12316C21.5 6.63516 21.5 6.20716 21.46 5.85416C21.416 5.47316 21.32 5.10416 21.075 4.76616C20.831 4.42716 20.512 4.21916 20.165 4.05616C19.842 3.90616 19.436 3.77116 18.973 3.61716L18.481 3.45316C18.451 2.82716 18.314 2.26716 17.893 1.74816C17.237 0.939163 16.397 0.798163 15.387 0.630163L15.252 0.607163C13.7639 0.362648 12.258 0.24323 10.75 0.250163ZM13.335 20.2502L13.175 19.4512C13.1637 19.3945 13.1331 19.3435 13.0884 19.3069C13.0438 19.2702 12.9878 19.2502 12.93 19.2502H8.57C8.51223 19.2502 8.45625 19.2702 8.41158 19.3069C8.36692 19.3435 8.33632 19.3945 8.325 19.4512L8.165 20.2502H13.335ZM3.038 5.02816L3.052 5.02316C3.124 6.54316 3.295 8.22316 3.723 9.79316L2.657 9.20216C2.268 8.98516 2.024 8.84916 1.848 8.72716C1.686 8.61416 1.633 8.54716 1.604 8.49716C1.574 8.44716 1.542 8.36916 1.522 8.17316C1.50133 7.86095 1.49399 7.548 1.5 7.23516V7.16216C1.5 6.62316 1.501 6.28216 1.53 6.02416C1.558 5.78616 1.602 5.69716 1.642 5.64316C1.681 5.58816 1.751 5.51816 1.968 5.41716C2.204 5.30716 2.528 5.19916 3.038 5.02816ZM18.448 5.02216C18.377 6.54216 18.205 8.22216 17.778 9.79216L18.843 9.20116C19.232 8.98416 19.476 8.84816 19.652 8.72616C19.814 8.61316 19.867 8.54616 19.896 8.49616C19.926 8.44616 19.958 8.36816 19.978 8.17216C19.999 7.95816 20 7.67916 20 7.23416V7.16116C20 6.62216 19.999 6.28116 19.97 6.02316C19.942 5.78516 19.898 5.69616 19.858 5.64216C19.819 5.58716 19.749 5.51716 19.532 5.41616C19.296 5.30616 18.972 5.19716 18.462 5.02616L18.448 5.02216ZM6.498 2.08616C7.90352 1.85608 9.32579 1.74369 10.75 1.75016C12.49 1.75016 13.917 1.90316 15.002 2.08616C16.209 2.29016 16.462 2.36616 16.729 2.69416C16.991 3.01616 17.016 3.32216 16.962 4.67716C16.872 6.93516 16.574 9.37316 15.652 11.2272C15.196 12.1412 14.6 12.8892 13.825 13.4092C13.054 13.9262 12.059 14.2502 10.75 14.2502C9.441 14.2502 8.447 13.9262 7.676 13.4092C6.9 12.8892 6.304 12.1412 5.849 11.2262C4.926 9.37316 4.629 6.93616 4.539 4.67616C4.485 3.32216 4.509 3.01616 4.772 2.69416C5.038 2.36616 5.291 2.29016 6.498 2.08616Z" fill="#185745"/>
</svg>