<svg xmlns="http://www.w3.org/2000/svg" width="24" height="17" viewBox="0 0 24 17" fill="none">
  <mask id="mask0_20_24604" style="mask-type:luminance" maskUnits="userSpaceOnUse" x="0" y="2" width="12" height="13">
    <path d="M0.611072 2.85577H11.9795V14.2242H0.611072V2.85577Z" fill="white"/>
  </mask>
  <g mask="url(#mask0_20_24604)">
    <path fill-rule="evenodd" clip-rule="evenodd" d="M8.40106 7.07866L8.05521 6.64386L7.08473 6.52424L7.62239 7.0695L8.40106 7.07866ZM2.38683 8.35398C2.38683 8.35398 1.10027 8.95241 0.831837 10.7173C0.150251 8.93441 1.03858 5.90188 3.63825 5.88279C2.17089 4.56294 2.49216 2.85577 2.49216 2.85577C3.71386 4.03282 5.3525 4.19063 5.3525 4.19063L6.24954 5.22092C5.88645 4.31552 6.16238 3.8592 6.16238 3.8592C7.11896 5.4948 9.57751 6.2042 9.57751 6.2042L9.727 6.9535C11.2115 7.07839 11.3716 5.77751 11.3716 5.77751C12.6319 7.40099 11.5425 9.4511 11.5425 9.4511C11.5425 9.4511 11.1431 7.27815 7.10285 8.44165C7.10285 8.44165 8.08862 10.4439 10.4766 10.4439C10.4766 10.4439 9.56033 11.9998 7.07513 11.9321C9.36043 9.50087 1.40492 8.18333 4.11972 14.2242C3.02139 13.9246 0.761776 11.7243 2.38683 8.35398Z" fill="#006622"/>
    <path fill-rule="evenodd" clip-rule="evenodd" d="M5.26033 10.1473C4.55895 11.6377 5.92868 12.9252 6.98243 13.4022C5.21472 13.4817 4.13539 12.8266 3.78432 12.2384C3.75203 11.8251 3.79534 11.4212 3.96344 11.0689C4.21457 10.5427 4.70158 10.2446 5.26033 10.1473Z" fill="#006622"/>
  </g>
  <path d="M23.8697 6.21044C23.3277 5.78461 22.8004 5.43826 22.2899 5.16008C22.0731 5.04194 21.8593 4.93609 21.6488 4.84167C21.4731 4.7629 21.2997 4.69208 21.1287 4.62872C21.1926 4.19038 20.9927 3.79397 20.8338 3.60387C20.5303 3.241 20.5067 2.85577 20.5067 2.85577C20.4773 3.11073 19.888 3.56976 18.8018 3.93821C18.6198 3.99971 18.4787 4.08303 18.3699 4.17864C16.0556 4.28822 14.5576 5.61611 14.3536 5.84814C14.1895 6.03545 14.0991 6.32674 14.0495 6.57666C13.3348 6.72874 12.6419 7.86539 12.6419 7.86539C12.4806 8.10413 13.0094 8.46312 13.0094 8.46312C13.0168 8.54194 13.0347 8.61963 13.0635 8.69567C13.2369 9.15641 13.9436 9.83346 14.4315 9.39792C14.6854 9.90672 15.194 9.94531 15.194 9.94531C14.7971 9.71889 14.7251 8.99201 14.7251 8.99201C14.8628 8.76337 15.0028 8.50727 15.1686 8.29259C15.49 8.2283 15.9531 8.25906 16.3442 8.76672C16.7814 9.33363 16.8723 9.94752 16.8153 10.391C16.695 10.543 16.5348 10.6884 16.3275 10.822C16.3275 10.822 15.9825 10.8365 15.7192 10.391C15.7192 10.391 15.7475 10.8265 15.9669 11.0199C15.9237 11.04 15.8794 11.0596 15.8333 11.0786C15.8333 11.0786 16.1046 11.6484 17.1557 11.5802C18.2068 11.5119 18.4459 11.1636 18.4459 11.1636C18.4459 11.1636 18.2432 11.0809 18.0945 10.7336C18.0721 10.5776 18.0519 10.2657 18.1804 9.9688C18.7678 9.75855 19.8391 10.1058 20.2037 11.2318C20.7877 13.0339 19.3979 14.2242 19.3979 14.2242C21.6574 13.5052 22.8105 11.2732 23.1768 10.4222C23.2995 10.9724 23.3093 11.3118 23.3093 11.3118C24.3483 9.06748 23.8697 6.21044 23.8697 6.21044ZM15.5321 5.93536C15.4238 6.20821 15.1278 6.74607 14.4498 6.87467C14.5628 6.66556 14.591 6.46875 14.591 6.46875C14.811 6.29264 15.1122 6.10254 15.5321 5.93536Z" fill="#006622"/>
</svg>