<svg xmlns="http://www.w3.org/2000/svg" width="24" height="24" viewBox="0 0 24 24" fill="none">
  <path d="M2.83374 1.875L2.80225 2.09546C2.722 2.65608 2.28146 3.097 1.72046 3.17725L1.5 3.20874V3.54199L1.72046 3.57349C2.28108 3.65374 2.722 4.09354 2.80225 4.65454L2.83374 4.875H3.16699L3.19849 4.65454C3.27874 4.09392 3.71854 3.653 4.27954 3.57275L4.5 3.54126V3.20874L4.27954 3.17725C3.71892 3.097 3.278 2.65646 3.19775 2.09546L3.16626 1.875H2.83374ZM7.875 2.25L6.375 4.125C6.375 4.125 9.3772 4.12491 9.3772 5.98828C9.38657 6.79791 9.375 9.375 9.375 9.375L10.125 10.125C10.125 10.125 10.8684 6.375 10.8684 5.25C10.8684 2.625 7.875 2.25 7.875 2.25ZM20.25 2.25C18 2.25 16.875 3.375 16.875 4.875V5.63159L17.625 5.625C17.6145 5.283 18.1868 4.125 21.375 4.125L20.25 2.25ZM14.458 2.625L14.4265 2.84546C14.3463 3.40608 13.9065 3.847 13.3455 3.92725L13.125 3.95874V4.29199L13.3455 4.32349C13.9061 4.40374 14.347 4.84354 14.4272 5.40454L14.4587 5.625H14.792L14.8235 5.40454C14.9037 4.84392 15.3435 4.403 15.9045 4.32275L16.125 4.29126V3.95874L15.9045 3.92725C15.3439 3.847 14.903 3.40646 14.8228 2.84546L14.7913 2.625H14.458ZM19.5 4.875L18.75 5.25C18.7605 5.592 18.6574 6.375 16.5 6.375C14.3426 6.375 13.5 7.875 13.5 9V10.125L14.25 9.375C14.25 8.625 15 8.25659 16.5 8.25659C18.6135 8.25659 19.5 6.74325 19.5 6V4.875ZM4.70801 6L4.67651 6.22046C4.59626 6.78108 4.15646 7.222 3.59546 7.30225L3.375 7.33374V7.66699L3.59546 7.69849C4.15608 7.77874 4.597 8.21854 4.67725 8.77954L4.70874 9H5.04199L5.07349 8.77954C5.15374 8.21892 5.59354 7.778 6.15454 7.69775L6.375 7.66626V7.33374L6.15454 7.30225C5.59392 7.222 5.153 6.78146 5.07275 6.22046L5.04126 6H4.70801ZM19.708 8.625L19.6765 8.84546C19.5963 9.40608 19.1565 9.847 18.5955 9.92725L18.375 9.95874V10.292L18.5955 10.3235C19.1561 10.4037 19.597 10.8435 19.6772 11.4045L19.7087 11.625H20.042L20.0735 11.4045C20.1537 10.8439 20.5935 10.403 21.1545 10.3228L21.375 10.2913V9.95874L21.1545 9.92725C20.5939 9.847 20.153 9.40646 20.0728 8.84546L20.0413 8.625H19.708ZM7.14111 9L3 20.25L3.75 21L15 16.8589L7.14111 9ZM16.125 9L15.375 9.375C15.375 10.4932 15 10.875 10.875 10.875L12.375 12.3816C15.591 12.3816 16.125 10.8682 16.125 10.125V9ZM19.5 13.1316C18.375 13.1316 13.875 13.875 13.875 13.875L14.625 14.625C14.625 14.625 17.9521 14.6134 18.7617 14.6228C20.6251 14.6228 20.625 17.625 20.625 17.625L22.5 16.125C22.5 16.125 22.125 13.1316 19.5 13.1316ZM16.6252 16.875L16.5073 17.7026C16.4293 18.249 15.9994 18.6786 15.4526 18.7566L14.625 18.8745V19.3748L15.4526 19.4927C15.999 19.5707 16.4286 20.0006 16.5066 20.5474L16.6245 21.375H17.1248L17.2427 20.5474C17.3207 20.001 17.7506 19.5714 18.2974 19.4934L19.125 19.3755V18.8745L18.2974 18.7566C17.751 18.6786 17.3214 18.2494 17.2434 17.7026L17.1255 16.875H16.6252Z" fill="#185745"/>
</svg>