<svg xmlns="http://www.w3.org/2000/svg" width="24" height="21" viewBox="0 0 24 21" fill="none">
  <path d="M11.9992 17.8903C9.65923 17.8903 7.39423 16.9753 5.24923 15.1903C3.49423 13.7053 2.26423 11.9953 1.69423 11.0953C1.56225 10.8866 1.49219 10.6447 1.49219 10.3978C1.49219 10.1508 1.56225 9.90896 1.69423 9.70025C2.26423 8.80025 3.49423 7.07525 5.24923 5.60525C9.50923 2.02025 14.4742 2.02025 18.7342 5.60525C20.4892 7.09025 21.7192 8.80025 22.2892 9.70025C22.5592 10.1353 22.5592 10.6603 22.2892 11.0953C21.7192 11.9953 20.4892 13.7203 18.7342 15.1903C16.6042 16.9903 14.3392 17.8903 11.9842 17.8903H11.9992ZM3.04423 10.3903C3.59923 11.2453 4.69423 12.7453 6.22423 14.0353C9.92923 17.1553 14.0692 17.1553 17.7742 14.0353C19.3042 12.7453 20.3992 11.2303 20.9542 10.3903C20.3992 9.53525 19.3042 8.03525 17.7742 6.74525C14.0692 3.62525 9.92923 3.62525 6.22423 6.74525C4.69423 8.03525 3.59923 9.55025 3.04423 10.3903Z" fill="black"/>
  <path d="M12 14.1401C11.0054 14.1401 10.0516 13.745 9.34835 13.0418C8.64509 12.3385 8.25 11.3847 8.25 10.3901C8.25 9.39557 8.64509 8.44175 9.34835 7.73849C10.0516 7.03522 11.0054 6.64014 12 6.64014C12.9946 6.64014 13.9484 7.03522 14.6517 7.73849C15.3549 8.44175 15.75 9.39557 15.75 10.3901C15.75 11.3847 15.3549 12.3385 14.6517 13.0418C13.9484 13.745 12.9946 14.1401 12 14.1401ZM12 8.14014C10.755 8.14014 9.75 9.14514 9.75 10.3901C9.75 11.6351 10.755 12.6401 12 12.6401C13.245 12.6401 14.25 11.6351 14.25 10.3901C14.25 9.14514 13.245 8.14014 12 8.14014Z" fill="black"/>
</svg>