<svg xmlns="http://www.w3.org/2000/svg" width="25" height="24" viewBox="0 0 25 24" fill="none">
  <path d="M11.7396 0.959961C11.2108 0.959961 10.7796 1.39121 10.7796 1.91996V1.94246C8.25581 2.15434 6.12393 4.02184 5.61956 6.51746C5.58393 6.65621 5.55581 6.80996 5.53706 6.97684C5.52581 7.01809 5.50706 7.07996 5.50143 7.16059C5.47143 7.51871 5.38706 8.00059 5.25206 8.59309C5.23518 8.66434 5.21831 8.73559 5.20143 8.80684C6.15768 8.24996 7.29018 8.15996 7.89956 8.15996C9.52893 8.15996 10.9915 8.54621 11.3271 8.63996H13.1102C13.4458 8.54434 14.8877 8.15996 16.5396 8.15996C17.0233 8.15996 18.2308 8.23309 19.2546 8.84996L19.1946 8.62309C19.054 8.01934 18.9677 7.52809 18.9377 7.15871C18.9321 7.08559 18.9171 7.02746 18.9021 6.97871C18.8833 6.81184 18.8552 6.65996 18.8252 6.54559C18.3171 4.02371 16.1852 2.15434 13.6596 1.94246V1.91996C13.6596 1.39121 13.2283 0.959961 12.6996 0.959961H11.7396ZM11.7396 1.91996H12.6996V8.63996H11.7396V1.91996ZM9.86081 3.83996C10.0483 3.85684 10.2152 3.98246 10.2771 4.16996C10.3577 4.42309 10.2208 4.69309 9.96956 4.77559C9.91893 4.79246 8.79768 5.18621 8.34956 6.40496C8.27831 6.59996 8.09456 6.71996 7.89956 6.71996C7.84518 6.71996 7.78893 6.71059 7.73456 6.68996C7.48518 6.59809 7.35768 6.32246 7.44956 6.07496C8.06268 4.40434 9.60581 3.88496 9.66956 3.86246C9.73331 3.84184 9.79893 3.83621 9.86081 3.83996ZM7.90706 9.11996C7.11956 9.11996 5.22581 9.28871 4.69143 10.8468C4.69143 10.8468 3.61893 13.2131 3.35268 13.8131C2.48643 15.7593 1.66706 17.5987 1.66706 18.7106C1.66518 18.87 1.70081 19.4362 2.30456 20.0493C2.84081 20.5931 4.09706 21.1087 5.76018 21.4856C6.19518 21.0337 6.77268 20.3212 6.96206 19.5637C7.02768 19.3068 7.28831 19.1512 7.54518 19.215C7.80206 19.2787 7.95768 19.5393 7.89206 19.7962C7.69331 20.5912 7.19081 21.315 6.73143 21.8456C7.36518 22.6481 9.17643 23.04 12.2271 23.04C15.439 23.04 17.2315 22.6293 17.7902 21.7575C17.5146 21.3637 17.1996 20.8331 17.0458 20.2893C16.9746 20.0343 17.1227 19.77 17.3777 19.6968C17.6327 19.6256 17.8971 19.7756 17.9702 20.0306C18.1146 20.5462 18.4896 21.1106 18.7652 21.4668C20.3908 21.0937 21.6227 20.5856 22.1496 20.0493C22.7533 19.4362 22.7908 18.8681 22.7871 18.72C22.7871 17.5968 21.9696 15.7593 21.1052 13.815C20.8371 13.215 19.7702 10.86 19.7702 10.86C19.1646 9.24559 17.1508 9.11996 16.5471 9.11996C14.839 9.11996 13.3446 9.57371 13.3296 9.57934L13.1871 9.59996H11.1302C11.1133 9.59434 9.58143 9.11996 7.90706 9.11996ZM9.03956 10.08C10.4196 10.08 11.7471 11.04 11.7471 11.04V13.0875C11.8877 13.0087 12.0471 12.96 12.2196 12.96C12.3977 12.96 12.5646 13.0125 12.7071 13.0968V11.04C12.7071 11.04 14.0365 10.08 15.4165 10.08C16.879 10.08 17.5071 11.46 17.5071 12.48C17.5071 12.5212 17.4996 12.5587 17.494 12.5981C17.4358 13.665 16.6033 15.7725 16.5058 16.0181C16.4308 16.2056 16.249 16.32 16.0596 16.32C15.9996 16.32 15.9396 16.3087 15.8815 16.2862C15.6358 16.1887 15.5158 15.9075 15.6133 15.6618C15.7915 15.2137 16.1702 14.1956 16.384 13.3762C15.964 13.4512 15.5871 13.44 15.5871 13.44H13.0465C13.129 13.5825 13.1796 13.7437 13.1796 13.92V18.24H12.6996V15.36H11.7396V18.24H11.2596V13.92C11.2596 13.7437 11.3102 13.5825 11.3927 13.44H8.86706C8.86706 13.44 8.48081 13.4512 8.05518 13.3725C8.26706 14.1918 8.64581 15.2137 8.82581 15.6618C8.92331 15.9075 8.80518 16.1887 8.55768 16.2862C8.49956 16.3087 8.43956 16.32 8.37956 16.32C8.18831 16.32 8.00831 16.2056 7.93331 16.0181C7.83206 15.7631 6.93956 13.5037 6.93956 12.48C6.93956 12.4612 6.94706 12.4462 6.94893 12.4275C6.96956 11.415 7.60143 10.08 9.03956 10.08ZM10.2996 15.9356V18.24H8.85956L10.2996 15.9356ZM14.1396 15.9356L15.5796 18.24H14.1396V15.9356ZM14.6008 17.76C14.6065 17.7712 14.614 17.7787 14.6196 17.79V17.76H14.6008Z" fill="#185745"/>
</svg>