<svg xmlns="http://www.w3.org/2000/svg" width="25" height="25" viewBox="0 0 25 25" fill="none">
  <path d="M5.5 19.5V10.808C5.5 10.552 5.55733 10.3097 5.672 10.081C5.78667 9.85232 5.94467 9.66399 6.146 9.51599L11.531 5.43799C11.813 5.22266 12.135 5.11499 12.497 5.11499C12.859 5.11499 13.183 5.22266 13.469 5.43799L18.854 9.51499C19.056 9.66299 19.214 9.85166 19.328 10.081C19.4427 10.3097 19.5 10.552 19.5 10.808V19.5C19.5 19.768 19.4003 20.0017 19.201 20.201C19.0017 20.4003 18.768 20.5 18.5 20.5H15.116C14.8867 20.5 14.6947 20.4227 14.54 20.268C14.3853 20.1127 14.308 19.9207 14.308 19.692V14.923C14.308 14.6943 14.2307 14.5027 14.076 14.348C13.9207 14.1927 13.7287 14.115 13.5 14.115H11.5C11.2713 14.115 11.0797 14.1927 10.925 14.348C10.7697 14.5027 10.692 14.6943 10.692 14.923V19.693C10.692 19.9217 10.6147 20.1133 10.46 20.268C10.3053 20.4227 10.1137 20.5 9.885 20.5H6.5C6.232 20.5 5.99833 20.4003 5.799 20.201C5.59967 20.0017 5.5 19.768 5.5 19.5Z" fill="#185745"/>
</svg>