<svg width="23" height="16" viewBox="0 0 23 16" fill="none" xmlns="http://www.w3.org/2000/svg">
<path fill-rule="evenodd" clip-rule="evenodd" d="M2.40405 0C1.29948 0 0.404053 0.895431 0.404053 2V9C0.404053 10.1046 1.29948 11 2.40405 11H14.5859L11.4041 16L20.4041 11C21.5087 11 22.4041 10.1046 22.4041 9V7.27273V2C22.4041 0.895431 21.5087 0 20.4041 0H2.40405Z" fill="#C00B0B"/>
<path d="M4.97791 8V2.18182H6.03189V4.64489H8.72791V2.18182H9.78473V8H8.72791V5.52841H6.03189V8H4.97791ZM12.7889 8.08523C12.3628 8.08523 11.9935 7.99148 11.681 7.80398C11.3685 7.61648 11.1261 7.35417 10.9537 7.01705C10.7833 6.67992 10.698 6.28598 10.698 5.83523C10.698 5.38447 10.7833 4.98958 10.9537 4.65057C11.1261 4.31155 11.3685 4.0483 11.681 3.8608C11.9935 3.6733 12.3628 3.57955 12.7889 3.57955C13.2151 3.57955 13.5844 3.6733 13.8969 3.8608C14.2094 4.0483 14.4509 4.31155 14.6213 4.65057C14.7937 4.98958 14.8799 5.38447 14.8799 5.83523C14.8799 6.28598 14.7937 6.67992 14.6213 7.01705C14.4509 7.35417 14.2094 7.61648 13.8969 7.80398C13.5844 7.99148 13.2151 8.08523 12.7889 8.08523ZM12.7946 7.26136C13.0257 7.26136 13.2189 7.19792 13.3742 7.07102C13.5295 6.94223 13.645 6.76989 13.7208 6.55398C13.7984 6.33807 13.8372 6.09754 13.8372 5.83239C13.8372 5.56534 13.7984 5.32386 13.7208 5.10795C13.645 4.89015 13.5295 4.71686 13.3742 4.58807C13.2189 4.45928 13.0257 4.39489 12.7946 4.39489C12.5579 4.39489 12.3609 4.45928 12.2037 4.58807C12.0484 4.71686 11.9319 4.89015 11.8543 5.10795C11.7785 5.32386 11.7406 5.56534 11.7406 5.83239C11.7406 6.09754 11.7785 6.33807 11.8543 6.55398C11.9319 6.76989 12.0484 6.94223 12.2037 7.07102C12.3609 7.19792 12.5579 7.26136 12.7946 7.26136ZM17.9317 3.63636V4.43182H15.4232V3.63636H17.9317ZM16.0425 2.59091H17.0709V6.6875C17.0709 6.82576 17.0917 6.93182 17.1334 7.00568C17.177 7.07765 17.2338 7.12689 17.3039 7.15341C17.3739 7.17992 17.4516 7.19318 17.5368 7.19318C17.6012 7.19318 17.6599 7.18845 17.7129 7.17898C17.7679 7.16951 17.8095 7.16098 17.8379 7.15341L18.0112 7.95739C17.9563 7.97633 17.8777 7.99716 17.7754 8.01989C17.6751 8.04261 17.552 8.05587 17.4061 8.05966C17.1486 8.06723 16.9165 8.02841 16.7101 7.94318C16.5037 7.85606 16.3398 7.72159 16.2186 7.53977C16.0993 7.35795 16.0406 7.13068 16.0425 6.85795V2.59091Z" fill="white"/>
</svg>
