<svg xmlns="http://www.w3.org/2000/svg" width="26" height="12" viewBox="0 0 26 12" fill="none">
  <path d="M19.291 0.269989H5.9502C2.91263 0.269989 0.450195 2.73242 0.450195 5.76999C0.450195 8.80756 2.91263 11.27 5.9502 11.27H19.291C22.3286 11.27 24.791 8.80756 24.791 5.76999C24.791 2.73242 22.3286 0.269989 19.291 0.269989Z" fill="#FF555F"/>
  <path d="M20.3907 4.09615L20.2224 5.11252H17.2812L17.4528 4.09615H20.3907ZM18.3103 2.92734H19.6634L18.9074 7.47558C18.8863 7.60048 18.8895 7.69789 18.917 7.76774C18.9445 7.8355 18.99 7.88318 19.0535 7.91068C19.1192 7.93824 19.1975 7.95199 19.2886 7.95199C19.3521 7.95199 19.4167 7.94671 19.4823 7.93609C19.548 7.92339 19.5977 7.91387 19.6316 7.90749L19.6824 8.91432C19.6062 8.93764 19.5035 8.96305 19.3743 8.99055C19.2473 9.01811 19.097 9.03505 18.9233 9.04137C18.593 9.05408 18.3135 9.01068 18.0848 8.91119C17.8562 8.80955 17.692 8.6539 17.5925 8.44429C17.493 8.23463 17.4718 7.97102 17.529 7.65345L18.3103 2.92734Z" fill="white"/>
  <path d="M13.7087 9.07C13.2111 9.07 12.7993 8.96412 12.4732 8.75237C12.1471 8.53853 11.9173 8.24208 11.784 7.86308C11.6527 7.48193 11.6283 7.03835 11.7109 6.53224C11.7914 6.03257 11.9587 5.59531 12.2128 5.22053C12.4669 4.84574 12.7898 4.5546 13.1815 4.34709C13.5732 4.13746 14.0147 4.03265 14.5059 4.03265C15.0014 4.03265 15.4122 4.13958 15.7383 4.35344C16.0643 4.56519 16.2941 4.86162 16.4275 5.24276C16.5609 5.62389 16.5863 6.06749 16.5037 6.57355C16.4211 7.07113 16.2517 7.50734 15.9955 7.88211C15.7393 8.25693 15.4164 8.54909 15.0268 8.75875C14.6372 8.96627 14.1978 9.07 13.7087 9.07ZM13.8421 8.02186C14.0708 8.02186 14.273 7.95729 14.4487 7.82815C14.6266 7.69687 14.7738 7.519 14.8902 7.29454C15.0088 7.068 15.0914 6.81175 15.138 6.52592C15.1846 6.24432 15.1877 5.99445 15.1475 5.77632C15.1072 5.55614 15.0225 5.38251 14.8934 5.25546C14.7663 5.12842 14.5917 5.06489 14.3694 5.06489C14.1407 5.06489 13.9374 5.13054 13.7595 5.26182C13.5816 5.39098 13.4345 5.56884 13.318 5.79541C13.2016 6.02195 13.12 6.27924 13.0734 6.56722C13.029 6.84668 13.0258 7.09654 13.0639 7.31676C13.102 7.53484 13.1857 7.70743 13.3148 7.83448C13.444 7.95938 13.6198 8.02186 13.8421 8.02186Z" fill="white"/>
  <path d="M4.85059 8.97474L5.93047 2.47H7.30573L6.86106 5.15383H9.65291L10.0975 2.47H11.4697L10.3897 8.97474H9.01766L9.46234 6.28772H6.67054L6.22586 8.97474H4.85059Z" fill="white"/>
</svg>