<svg xmlns="http://www.w3.org/2000/svg" width="20" height="20" viewBox="0 0 20 20" fill="none">
  <path d="M12.9066 9.58334C12.9066 11.25 10.8233 12.5 10.8233 13.75H9.15662C9.15662 12.5 7.07328 11.25 7.07328 9.58334C7.07328 7.975 8.38162 6.66667 9.98995 6.66667C11.5983 6.66667 12.9066 7.975 12.9066 9.58334ZM10.8233 14.5833H9.15662V15C9.15662 15.4583 9.53162 15.8333 9.98995 15.8333C10.4483 15.8333 10.8233 15.4583 10.8233 15V14.5833ZM18.3233 10C18.3233 7.95 17.5816 6.075 16.3566 4.625C16.115 4.34167 15.69 4.30834 15.4233 4.575C15.1983 4.8 15.1733 5.16667 15.3733 5.40834C16.4316 6.64167 17.0733 8.25 17.0733 10C17.0733 11.75 16.4316 13.3583 15.3733 14.6C15.165 14.8417 15.1983 15.2083 15.4233 15.4333C15.69 15.7 16.115 15.6667 16.3566 15.3833C17.5816 13.925 18.3233 12.05 18.3233 10ZM2.90662 10C2.90662 8.25 3.54828 6.64167 4.60662 5.4C4.81495 5.15834 4.78162 4.79167 4.55662 4.56667C4.29828 4.30834 3.86495 4.33334 3.62328 4.61667C2.39828 6.075 1.65662 7.95 1.65662 10C1.65662 12.05 2.39828 13.925 3.62328 15.3833C3.86495 15.6667 4.28995 15.7 4.55662 15.4333C4.78162 15.2083 4.80662 14.8417 4.60662 14.6C3.54828 13.3583 2.90662 11.75 2.90662 10ZM14.5733 10C14.5733 11.0667 14.2066 12.0583 13.59 12.8417C13.3983 13.0833 13.4233 13.4333 13.6483 13.6583C13.915 13.925 14.3566 13.9 14.59 13.6C15.3566 12.6083 15.8233 11.3583 15.8233 10C15.8233 8.64167 15.3566 7.39167 14.5816 6.40834C14.3483 6.10834 13.9066 6.08334 13.64 6.35C13.4233 6.56667 13.39 6.91667 13.5816 7.16667C14.2066 7.94167 14.5733 8.93334 14.5733 10ZM6.33995 13.65C6.55662 13.4333 6.58995 13.0833 6.39828 12.8333C5.77328 12.0583 5.40662 11.0667 5.40662 10C5.40662 8.93334 5.77328 7.94167 6.38995 7.15834C6.58162 6.91667 6.55662 6.56667 6.33162 6.34167C6.07328 6.08334 5.63162 6.10834 5.39828 6.4C4.62328 7.39167 4.15662 8.64167 4.15662 10C4.15662 11.3583 4.62328 12.6083 5.39828 13.6C5.63162 13.8917 6.07328 13.9167 6.33995 13.65Z" fill="#185745"/>
</svg>