<svg xmlns="http://www.w3.org/2000/svg" width="25" height="24" viewBox="0 0 25 24" fill="none">
  <g clip-path="url(#clip0_200_1950)">
    <mask id="mask0_200_1950" style="mask-type:luminance" maskUnits="userSpaceOnUse" x="0" y="0" width="25" height="24">
      <path d="M24.2695 0H0.269531V24H24.2695V0Z" fill="white"/>
    </mask>
    <g mask="url(#mask0_200_1950)">
      <path d="M12.2281 0.191162C9.3312 0.191162 7.26321 0.81561 6.08195 2.04749C4.83321 3.35061 5.06742 5.28568 5.3543 7.18506C4.28742 7.24506 3.43448 7.29004 2.78385 7.31067C2.36832 7.30724 1.96026 7.42121 1.60665 7.63948C1.25305 7.85775 0.968261 8.17144 0.78508 8.54443C0.55434 9.05394 0.457358 9.61388 0.503303 10.1713C0.549248 10.7287 0.736603 11.2652 1.04765 11.7301C1.25739 12.0533 1.55362 12.311 1.90264 12.4741C2.25166 12.6372 2.63946 12.699 3.02189 12.6526C3.53002 12.5945 4.15809 12.4911 4.97747 12.3336C5.07872 12.538 5.1989 12.7292 5.31327 12.913C5.59078 13.3555 5.85312 13.7736 5.80437 14.2705C5.76517 14.5376 5.81427 14.8102 5.94424 15.0468C6.0742 15.2833 6.2779 15.471 6.52433 15.5812C6.63859 15.6298 6.76037 15.6584 6.88433 15.6658C6.93805 16.845 6.90929 18.0266 6.79826 19.2019C6.26367 19.641 5.79956 20.1595 5.42205 20.7393C5.325 20.8725 5.25672 21.0245 5.22155 21.1856C5.18637 21.3467 5.18506 21.5133 5.2177 21.6749C5.3302 22.1118 5.7483 22.3931 6.14018 22.6106C6.36143 22.7325 8.42006 23.8088 12.2863 23.8088C16.1526 23.8088 18.2134 22.7325 18.4347 22.6106C18.8265 22.395 19.2428 22.1136 19.3571 21.6768C19.3898 21.5147 19.3884 21.3476 19.3528 21.1862C19.3172 21.0248 19.2484 20.8726 19.1506 20.7393C18.773 20.1574 18.3075 19.6376 17.7707 19.1982C17.6612 18.0241 17.633 16.8438 17.6865 15.6658C17.8116 15.6584 17.9346 15.6298 18.0501 15.5812C18.2966 15.471 18.5003 15.2833 18.6302 15.0468C18.7602 14.8102 18.8093 14.5376 18.7701 14.2705C18.7195 13.7736 18.9818 13.3555 19.2612 12.913C19.3756 12.7292 19.4958 12.538 19.597 12.3336C20.4314 12.4949 21.0444 12.5945 21.5526 12.6526C21.935 12.699 22.3228 12.6372 22.6718 12.4741C23.0208 12.311 23.3171 12.0533 23.5268 11.7301C23.8378 11.2652 24.0252 10.7287 24.0711 10.1713C24.1171 9.61388 24.0201 9.05395 23.7894 8.54443C23.6063 8.17122 23.3216 7.85727 22.968 7.63869C22.6144 7.4201 22.2063 7.30577 21.7906 7.30884C21.1719 7.29009 20.3265 7.24881 19.2183 7.18506C19.5052 5.28381 19.7413 3.35061 18.4925 2.04749C17.3094 0.81561 15.2433 0.191162 12.3446 0.191162H12.2281ZM12.2863 3.0542C12.3733 3.05438 12.4585 3.07914 12.5321 3.12561C13.5296 3.75186 14.1294 4.87299 13.8988 5.67737C13.7356 6.24174 13.1788 6.54199 12.2882 6.54199C11.3975 6.54199 10.8389 6.24174 10.6757 5.67737C10.4451 4.87299 11.0431 3.75186 12.0406 3.12561C12.1144 3.07961 12.1994 3.0549 12.2863 3.0542ZM12.2757 4.01807C12.0458 4.01807 11.8253 4.10939 11.6628 4.27195C11.5002 4.43451 11.4089 4.65499 11.4089 4.88489C11.4089 5.11478 11.5002 5.33526 11.6628 5.49782C11.8253 5.66038 12.0458 5.75171 12.2757 5.75171C12.5056 5.75171 12.7261 5.66038 12.8887 5.49782C13.0512 5.33526 13.1425 5.11478 13.1425 4.88489C13.1425 4.65499 13.0512 4.43451 12.8887 4.27195C12.7261 4.10939 12.5056 4.01807 12.2757 4.01807ZM14.0544 6.50061C15.6634 6.67167 17.2434 7.05043 18.7551 7.62744C18.7777 7.63518 18.797 7.65029 18.81 7.67036C18.8229 7.69042 18.8287 7.71426 18.8265 7.73804L18.7778 8.39795C18.7764 8.41501 18.7711 8.43152 18.7622 8.4462C18.7534 8.46087 18.7413 8.4733 18.7269 8.48254C18.7124 8.49131 18.6961 8.49668 18.6792 8.49827C18.6624 8.49985 18.6454 8.49761 18.6295 8.4917C16.5872 7.78886 14.446 7.41554 12.2863 7.38574C10.1272 7.41569 7.98671 7.78901 5.94499 8.4917C5.92911 8.49761 5.91211 8.49985 5.89524 8.49827C5.87838 8.49668 5.86208 8.49131 5.84758 8.48254C5.83369 8.47373 5.82194 8.46192 5.8132 8.44798C5.80446 8.43404 5.79894 8.41832 5.79705 8.40198L5.74833 7.73804C5.74629 7.71411 5.75214 7.69018 5.76496 7.66988C5.77778 7.64958 5.7969 7.63404 5.81939 7.62561C7.33535 7.05957 8.91542 6.68294 10.5238 6.50427C10.8388 6.82865 11.3732 7.10449 12.2882 7.10449C13.2032 7.10449 13.7413 6.82499 14.0544 6.50061ZM5.18766 7.75891C5.18675 7.76572 5.18675 7.77261 5.18766 7.77942L5.23637 8.44702C5.24532 8.55006 5.27788 8.64964 5.33154 8.73805C5.38521 8.82646 5.45854 8.90131 5.54583 8.95679C5.60136 8.99043 5.66124 9.0163 5.7238 9.03369C5.7211 9.29729 5.73235 9.56084 5.75749 9.82324C5.51663 9.88036 5.29689 10.0046 5.1237 10.1814C4.95052 10.3583 4.831 10.5806 4.77898 10.8226C4.6951 11.1426 4.69371 11.4786 4.77495 11.7993C4.71495 11.8106 4.65692 11.8218 4.5988 11.833C4.64742 11.3875 4.5211 10.9406 4.2465 10.5864C3.84338 10.1327 2.99563 8.98131 3.56938 7.84131C4.03813 7.82068 4.57454 7.79266 5.18766 7.75891ZM19.3872 7.75891C20.0059 7.79266 20.5381 7.82068 20.9937 7.84131C21.5656 8.98131 20.7201 10.1327 20.3151 10.5864C20.0413 10.9402 19.9149 11.3863 19.9625 11.8312C19.9081 11.8199 19.8558 11.8106 19.7995 11.7993C19.8809 11.4787 19.8796 11.1426 19.7959 10.8226C19.7431 10.5806 19.6231 10.3584 19.4496 10.1816C19.2761 10.0048 19.0561 9.88055 18.8151 9.82324C18.8409 9.56148 18.8527 9.29854 18.8507 9.03552C18.9137 9.01833 18.9738 8.99179 19.029 8.95679C19.1167 8.90083 19.1903 8.82533 19.2439 8.73618C19.2975 8.64704 19.3298 8.54669 19.3381 8.44299L19.3872 7.78125C19.3862 7.77383 19.3862 7.76633 19.3872 7.75891ZM12.2863 7.94824C14.0208 7.97292 15.7447 8.22369 17.4144 8.69421C17.4369 9.21171 17.4708 10.3424 17.469 10.4568C17.4633 10.8055 17.4052 12.0882 17.4071 12.1051C17.2477 14.4057 16.7414 15.7482 15.1908 16.7926L14.9432 16.9592C14.9226 16.6405 14.9058 16.3462 14.8927 16.0968C14.8664 15.6506 14.8496 15.3299 14.8289 15.1593C14.7372 14.5517 14.4107 14.0044 13.9196 13.6351C13.7283 13.4947 13.5093 13.3964 13.2772 13.3469C13.0451 13.2974 12.8051 13.2978 12.5731 13.348C12.3839 13.3874 12.1887 13.3874 11.9996 13.348C11.7677 13.2979 11.5277 13.2975 11.2957 13.347C11.0636 13.3965 10.8447 13.4947 10.6534 13.6351C10.1622 14.0044 9.83551 14.5517 9.7437 15.1593C9.72307 15.3299 9.70618 15.6506 9.6818 16.0968C9.6668 16.3462 9.65003 16.6405 9.63128 16.9592C9.55439 16.9086 9.38188 16.7926 9.38188 16.7926C7.83313 15.7482 7.32678 14.4075 7.16741 12.1106C7.16928 12.0881 7.11339 11.0324 7.10589 10.4568C7.104 10.3424 7.13758 9.21171 7.16008 8.69421C8.82913 8.22382 10.5524 7.97305 12.2863 7.94824ZM15.5024 9.07581C15.3651 9.07489 15.2278 9.08125 15.0911 9.09485C14.8105 9.12002 14.5346 9.1831 14.2708 9.28235C13.9984 9.38513 13.7456 9.5339 13.5234 9.72217L13.5212 9.724C13.5158 9.72869 13.5105 9.73359 13.5055 9.73865C13.478 9.76439 13.4559 9.79539 13.4406 9.82981C13.4253 9.86423 13.4171 9.90137 13.4164 9.93903C13.4157 9.97669 13.4226 10.0141 13.4367 10.049C13.4507 10.084 13.4716 10.1158 13.4982 10.1425C13.5247 10.1692 13.5564 10.1903 13.5912 10.2046C13.6261 10.2189 13.6634 10.226 13.7011 10.2256C13.7388 10.2251 13.776 10.2171 13.8105 10.2021C13.845 10.187 13.8761 10.1651 13.9021 10.1378C14.2471 9.81605 14.6831 9.60862 15.1505 9.54382C15.2713 9.52304 15.3932 9.50862 15.5156 9.50061C15.6353 9.49052 15.7556 9.49113 15.8752 9.50244C15.9984 9.51257 16.1375 9.52977 16.2828 9.52771C16.4268 9.52553 16.57 9.50698 16.7098 9.47241H16.7113C16.7547 9.46051 16.7919 9.43239 16.8151 9.39387C16.8384 9.35535 16.846 9.30936 16.8364 9.2654C16.8268 9.22143 16.8006 9.18283 16.7634 9.15757C16.7261 9.13231 16.6806 9.12231 16.6362 9.12964C16.3984 9.16722 16.1557 9.15864 15.921 9.1051C15.7825 9.08405 15.6425 9.07425 15.5024 9.07581ZM9.03251 9.0769C8.89242 9.07536 8.75245 9.08516 8.61394 9.1062C8.37923 9.15965 8.13647 9.16772 7.89873 9.13C7.85374 9.12138 7.80717 9.13067 7.76893 9.15589C7.7307 9.1811 7.70381 9.22026 7.69403 9.265C7.68424 9.30975 7.69231 9.35655 7.71653 9.39543C7.74074 9.43431 7.77918 9.46219 7.82366 9.47314H7.82586C7.96551 9.5077 8.10864 9.52625 8.25249 9.52844C8.39724 9.53051 8.53726 9.5133 8.66045 9.50317C8.78003 9.49186 8.90038 9.49125 9.02007 9.50134C9.14233 9.50935 9.26408 9.52377 9.38482 9.54456C9.85231 9.60961 10.2883 9.81744 10.6333 10.1396C10.6385 10.1447 10.6441 10.15 10.6497 10.1547C10.7067 10.2029 10.7805 10.2266 10.8549 10.2205C10.9293 10.2143 10.9983 10.1789 11.0465 10.1219C11.0948 10.0649 11.1185 9.99112 11.1123 9.9167C11.1062 9.84229 11.0707 9.77337 11.0138 9.7251L11.0134 9.72327C10.7911 9.53474 10.538 9.38584 10.2652 9.28308C10.0015 9.18385 9.72552 9.12078 9.44487 9.09558C9.30785 9.08206 9.1702 9.07583 9.03251 9.0769ZM6.04278 10.351C6.1365 10.351 6.22927 10.3698 6.31558 10.4064C6.40189 10.4429 6.47998 10.4964 6.54522 10.5637C6.54896 10.8131 6.55452 11.0511 6.56389 11.2855C6.42942 11.1989 6.28005 11.1379 6.12333 11.1057C6.05068 11.0954 5.97687 11.1138 5.91761 11.1571C5.85837 11.2004 5.81836 11.2651 5.80614 11.3374C5.79391 11.4098 5.81043 11.4841 5.85217 11.5444C5.89391 11.6048 5.95757 11.6464 6.02958 11.6605C6.17583 11.6849 6.53773 11.8912 6.60711 12.1425C6.63336 12.4987 6.66683 12.8345 6.71183 13.1514C6.76433 13.7757 6.81899 14.4225 6.85649 15.0956C6.81721 15.0884 6.77881 15.0771 6.74187 15.0619C6.6061 14.9989 6.49526 14.8924 6.42698 14.7592C6.35871 14.6261 6.33689 14.4739 6.36504 14.3269C6.43254 13.6369 6.10623 13.1174 5.78935 12.613C5.45185 12.0749 5.15964 11.6083 5.32464 10.9614C5.35157 10.8159 5.42097 10.6817 5.52406 10.5755C5.62714 10.4693 5.75933 10.3961 5.90398 10.3649C5.94967 10.3556 5.99616 10.351 6.04278 10.351ZM18.5302 10.351C18.5775 10.3508 18.6246 10.3555 18.6709 10.3649C18.8155 10.3961 18.9477 10.4693 19.0508 10.5755C19.1539 10.6817 19.2233 10.8159 19.2502 10.9614C19.4152 11.6083 19.1226 12.0749 18.7851 12.613C18.4682 13.1174 18.1419 13.6369 18.2094 14.3269C18.2372 14.4739 18.2152 14.6259 18.147 14.759C18.0787 14.8921 17.9681 14.9986 17.8326 15.0619C17.7951 15.079 17.7552 15.0904 17.7143 15.0956C17.7518 14.4468 17.8025 13.8225 17.8531 13.2206C17.9019 12.8831 17.9397 12.5237 17.9659 12.1425C18.0212 12.0245 18.1017 11.9202 18.2019 11.8369C18.302 11.7536 18.4192 11.6934 18.5452 11.6605C18.6173 11.6464 18.6809 11.6048 18.7227 11.5444C18.7644 11.4841 18.7809 11.4098 18.7687 11.3374C18.7565 11.2651 18.7165 11.2004 18.6572 11.1571C18.598 11.1138 18.5241 11.0954 18.4515 11.1057C18.2947 11.1379 18.1452 11.1988 18.0106 11.2855C18.0181 11.0511 18.0259 10.8131 18.0296 10.5637C18.0946 10.4966 18.1724 10.4431 18.2584 10.4066C18.3444 10.3701 18.4368 10.3511 18.5302 10.351ZM8.08916 10.7655C8.07034 10.765 8.05175 10.7698 8.03545 10.7792C8.01916 10.7887 8.00579 10.8024 7.99685 10.819C7.9879 10.8356 7.98371 10.8543 7.98475 10.8731C7.98579 10.8919 7.99202 10.9101 8.00274 10.9255C8.0723 11.0238 8.16177 11.1062 8.26531 11.1676C8.37523 11.2325 8.49743 11.2739 8.6242 11.2892C8.74345 11.304 9.62284 11.393 9.75615 11.4481C9.89313 11.5059 10.0127 11.5984 10.103 11.7166L10.1147 11.7301C10.1604 11.7836 10.2244 11.818 10.2942 11.8265C10.364 11.8351 10.4345 11.8172 10.4917 11.7764C10.549 11.7356 10.5889 11.6748 10.6036 11.6061C10.6182 11.5373 10.6066 11.4655 10.571 11.4049C10.5062 11.2916 10.4246 11.1887 10.3289 11.0999C10.2266 11.0082 10.1088 10.9355 9.981 10.8853C9.7553 10.8026 9.51543 10.7656 9.27532 10.7765C8.98038 10.7806 8.65694 10.7859 8.41619 10.7823C8.26919 10.7801 8.17672 10.7735 8.09722 10.7666C8.09478 10.7663 8.09161 10.7657 8.08916 10.7655ZM16.4487 10.7655C16.4462 10.7657 16.4438 10.7659 16.4414 10.7662C16.3619 10.7731 16.2698 10.7801 16.1228 10.7823C15.882 10.7859 15.5586 10.7806 15.2636 10.7765C15.0235 10.7656 14.7836 10.8026 14.5579 10.8853C14.4301 10.9355 14.3123 11.0082 14.21 11.0999C14.1144 11.1887 14.0328 11.2916 13.968 11.4049C13.9324 11.4655 13.9207 11.5373 13.9354 11.6061C13.9501 11.6748 13.99 11.7356 14.0472 11.7764C14.1045 11.8172 14.175 11.8351 14.2448 11.8265C14.3145 11.818 14.3786 11.7836 14.4243 11.7301L14.436 11.7166C14.5263 11.5984 14.6458 11.5059 14.7828 11.4481C14.9161 11.393 15.7955 11.304 15.9148 11.2892C16.0415 11.2739 16.1637 11.2325 16.2736 11.1676C16.3768 11.1061 16.4659 11.0236 16.5351 10.9255C16.5458 10.9101 16.5521 10.8919 16.5531 10.8731C16.5541 10.8543 16.55 10.8356 16.541 10.819C16.5321 10.8024 16.5187 10.7887 16.5024 10.7792C16.4861 10.7698 16.4675 10.765 16.4487 10.7655ZM12.268 12.5186C12.2611 12.5186 11.5774 12.5299 11.5774 12.9448C11.5775 13.0036 11.596 13.0608 11.6303 13.1085C11.6646 13.1562 11.713 13.1919 11.7687 13.2107C11.8243 13.2295 11.8845 13.2304 11.9407 13.2132C11.9969 13.1961 12.0463 13.1618 12.082 13.1151C12.1422 13.0958 12.2046 13.0844 12.2677 13.0811C12.332 13.0842 12.3956 13.0957 12.457 13.1151C12.4926 13.1619 12.5421 13.1964 12.5983 13.2136C12.6546 13.2309 12.7149 13.23 12.7706 13.2112C12.8264 13.1924 12.8748 13.1566 12.9092 13.1088C12.9435 13.061 12.962 13.0037 12.962 12.9448C12.9614 12.5299 12.275 12.5186 12.268 12.5186ZM12.9056 13.8724C13.1525 13.8667 13.3941 13.9443 13.5915 14.0925C13.9556 14.369 14.1987 14.7755 14.2701 15.2271C14.2889 15.3789 14.3077 15.7087 14.3302 16.1268C14.3489 16.4737 14.3712 16.8751 14.4012 17.3082C14.3393 17.3457 14.2778 17.3795 14.2159 17.4152H13.9625C13.9078 17.3332 13.8385 17.2619 13.7581 17.205C13.4019 16.9612 12.9334 17.068 12.5921 17.1449C12.4944 17.1711 12.3947 17.1894 12.294 17.1995C12.1926 17.1896 12.0922 17.1713 11.9937 17.1449C11.6525 17.068 11.184 16.9612 10.8277 17.205C10.7479 17.262 10.6792 17.3333 10.6252 17.4152H10.3608C10.297 17.3795 10.2351 17.3439 10.1733 17.3064C10.2014 16.8751 10.2237 16.4718 10.2425 16.1268C10.2669 15.7087 10.2838 15.3789 10.3026 15.2271C10.374 14.7754 10.6173 14.3689 10.9815 14.0925C11.1091 13.9968 11.256 13.9299 11.412 13.8966C11.568 13.8633 11.7294 13.8643 11.885 13.8995C12.1498 13.9539 12.4229 13.9539 12.6877 13.8995C12.7592 13.8833 12.8322 13.8742 12.9056 13.8724ZM11.9791 14.079C11.922 14.0804 11.8652 14.0884 11.8099 14.1028C11.8016 14.105 11.7932 14.1071 11.7854 14.1101L11.4367 14.2361C11.4001 14.2431 11.3623 14.2412 11.3265 14.2306C11.2611 14.2105 11.1912 14.2103 11.1258 14.2301C11.0603 14.2499 11.0022 14.2887 10.9588 14.3416C10.916 14.3933 10.8896 14.4566 10.8829 14.5234C10.8763 14.5902 10.8897 14.6574 10.9215 14.7166C11.046 14.9675 11.2381 15.1786 11.4762 15.3262C11.7143 15.4739 11.9888 15.5521 12.2689 15.5521C12.5491 15.5521 12.8236 15.4739 13.0617 15.3262C13.2998 15.1786 13.4919 14.9675 13.6164 14.7166L13.6168 14.7155C13.6484 14.6562 13.6616 14.589 13.6549 14.5222C13.6482 14.4555 13.6218 14.3922 13.5791 14.3405C13.5355 14.2878 13.4774 14.2493 13.4119 14.2296C13.3465 14.2099 13.2767 14.21 13.2114 14.2299C13.1761 14.2404 13.1388 14.2424 13.1026 14.2357L12.7529 14.1094C12.745 14.1064 12.7368 14.1043 12.7287 14.1021C12.5764 14.0629 12.4157 14.073 12.2695 14.131C12.1771 14.0944 12.0784 14.0767 11.9791 14.079ZM11.993 14.6396C12.0277 14.6387 12.0618 14.6491 12.09 14.6693C12.1405 14.7111 12.204 14.734 12.2695 14.734C12.335 14.734 12.3985 14.7111 12.4489 14.6693C12.4673 14.6561 12.4884 14.647 12.5106 14.6425C12.5328 14.6381 12.5558 14.6385 12.5778 14.6437L12.8888 14.7561C12.7199 14.9103 12.4981 14.9936 12.2695 14.9886C12.041 14.9936 11.8193 14.9103 11.6506 14.7561L11.9615 14.6437C11.9718 14.6413 11.9824 14.6399 11.993 14.6396ZM7.44316 15.5438C7.83952 16.2379 8.3971 16.8263 9.06878 17.2595C9.06878 17.2595 9.37626 17.4657 9.5225 17.5613C9.34625 17.6325 8.92087 17.8031 8.73149 17.9062C8.27094 18.1523 7.82678 18.4279 7.40177 18.7313C7.47784 17.6711 7.49106 16.6074 7.44133 15.5457L7.44316 15.5438ZM17.1295 15.5457C17.0807 16.6068 17.0939 17.6699 17.169 18.7295C16.7451 18.4257 16.3016 18.1501 15.8415 17.9044C15.6559 17.805 15.2245 17.6307 15.0501 17.5613C15.1983 17.4657 15.5057 17.2595 15.5057 17.2595C16.1763 16.8264 16.7332 16.2387 17.1295 15.5457ZM9.54339 18.1611C9.49276 18.7049 9.35577 20.2574 9.11016 21.1443C9.0281 21.5402 8.88373 21.9205 8.68242 22.2711C8.65967 22.3018 8.64343 22.3368 8.63467 22.374C8.62592 22.4112 8.62483 22.4498 8.63148 22.4875C8.63813 22.5251 8.65237 22.561 8.67334 22.5929C8.69432 22.6248 8.72159 22.6522 8.75348 22.6732C8.78537 22.6943 8.82122 22.7086 8.85884 22.7154C8.89645 22.7221 8.93503 22.7211 8.97225 22.7124C9.00947 22.7038 9.04453 22.6876 9.07528 22.6649C9.10604 22.6422 9.13186 22.6135 9.15117 22.5806C9.43591 22.076 9.63129 21.5261 9.72869 20.955C9.76817 20.961 9.80415 20.981 9.83012 21.0114C10.1199 21.3399 10.4893 21.5885 10.9028 21.7332C10.9088 21.3972 10.862 21.0625 10.764 20.7411C10.5777 20.2297 10.4664 19.694 10.4337 19.1506C10.4327 19.1296 10.4394 19.1089 10.4526 19.0924C10.4657 19.076 10.4843 19.0648 10.5051 19.061C10.5258 19.0572 10.5472 19.061 10.5653 19.0718C10.5834 19.0825 10.597 19.0995 10.6036 19.1195C10.7429 19.5389 10.9529 20.0231 11.1969 20.64C11.3435 21.124 11.4453 21.6205 11.5008 22.1232C11.5364 22.5338 11.5738 22.9799 11.7876 23.2386C8.39003 23.1524 6.61066 22.2283 6.41191 22.1177C6.00878 21.8964 5.81023 21.7162 5.76336 21.5343C5.75091 21.4467 5.75644 21.3574 5.77961 21.272C5.80278 21.1865 5.84311 21.1067 5.89812 21.0374C6.12873 20.6843 6.39716 20.3574 6.69866 20.0625C6.63866 20.4975 6.56567 20.9439 6.4738 21.4014C6.46503 21.4381 6.46377 21.4763 6.47008 21.5135C6.47638 21.5508 6.49013 21.5864 6.5105 21.6182C6.53087 21.65 6.55744 21.6774 6.58863 21.6988C6.61982 21.7201 6.655 21.7349 6.69205 21.7424C6.72909 21.7498 6.76726 21.7497 6.80427 21.742C6.84128 21.7344 6.87636 21.7194 6.90743 21.6979C6.93851 21.6764 6.96492 21.6488 6.98512 21.6169C7.00531 21.5849 7.01886 21.5493 7.02495 21.512C7.16183 20.8332 7.2577 20.177 7.32708 19.5414C7.40099 19.8764 7.57494 20.1811 7.82586 20.4152C8.06769 20.6272 8.35714 20.7777 8.66961 20.8539C8.94147 20.0214 9.23569 19.0649 9.30132 18.2699C9.47569 18.1855 9.54339 18.1611 9.54339 18.1611ZM15.0333 18.1619C15.0333 18.1619 15.0991 18.1863 15.2753 18.2706C15.3391 19.0638 15.6334 20.0203 15.9034 20.8528C16.216 20.7781 16.5057 20.6281 16.7472 20.4159C16.997 20.1843 17.1703 19.882 17.2441 19.5494C17.3135 20.1832 17.4109 20.8358 17.5459 21.5127C17.5588 21.5763 17.5933 21.6334 17.6434 21.6746C17.6936 21.7157 17.7564 21.7384 17.8212 21.7386C17.8629 21.7384 17.9039 21.729 17.9415 21.711C17.979 21.6931 18.0121 21.6671 18.0385 21.6349C18.0648 21.6027 18.0837 21.565 18.0938 21.5247C18.1039 21.4843 18.105 21.4422 18.097 21.4014C18.0051 20.942 17.9322 20.4957 17.8722 20.0588C18.175 20.3543 18.4441 20.6825 18.6745 21.0374C18.7301 21.1068 18.771 21.1868 18.7945 21.2726C18.8181 21.3584 18.8238 21.4481 18.8115 21.5361C18.7646 21.7161 18.5657 21.8964 18.1626 22.1177C17.9638 22.2283 16.1883 23.1505 12.8001 23.2386C13.012 22.9799 13.0513 22.5338 13.085 22.1232C13.1402 21.6208 13.2406 21.1244 13.385 20.64C13.6287 20.0239 13.8387 19.5398 13.9775 19.1213C13.9838 19.101 13.9974 19.0837 14.0156 19.0726C14.0338 19.0616 14.0555 19.0576 14.0764 19.0614C14.0974 19.0653 14.1162 19.0767 14.1294 19.0934C14.1425 19.1102 14.1491 19.1312 14.1478 19.1525C14.1154 19.6954 14.0044 20.2308 13.8182 20.7418C13.7184 21.0615 13.6715 21.3954 13.6794 21.7302C14.0897 21.5863 14.4559 21.339 14.7425 21.0121C14.7685 20.9817 14.8045 20.9617 14.844 20.9557C14.9422 21.5266 15.1375 22.0764 15.4215 22.5813C15.4471 22.62 15.4819 22.6518 15.5228 22.6737C15.5637 22.6956 15.6094 22.707 15.6558 22.7069C15.7163 22.7068 15.7752 22.6881 15.8247 22.6534C15.8835 22.6077 15.9225 22.541 15.9333 22.4672C15.9442 22.3934 15.9261 22.3183 15.8829 22.2576C15.6971 21.9329 15.5617 21.5818 15.4815 21.2164C15.4703 21.1733 15.4217 20.9743 15.4105 20.9293C15.2309 20.015 15.105 19.0909 15.0333 18.1619Z" fill="#185745"/>
    </g>
  </g>
  <defs>
    <clipPath id="clip0_200_1950">
      <rect width="24" height="24" fill="white" transform="translate(0.269531)"/>
    </clipPath>
  </defs>
</svg>