<svg width="23" height="24" viewBox="0 0 23 24" fill="none" xmlns="http://www.w3.org/2000/svg">
<mask id="mask0_193_11614" style="mask-type:luminance" maskUnits="userSpaceOnUse" x="0" y="0" width="23" height="24">
<path d="M22.97 0.7656H0.5V23.2344H22.97V0.7656Z" fill="white"/>
</mask>
<g mask="url(#mask0_193_11614)">
<path d="M17.3525 12C17.3525 12.5149 17.7738 12.9362 18.2887 12.9362H20.1611C20.676 12.9362 21.0973 12.5149 21.0973 12C21.0973 11.4851 20.676 11.0638 20.1611 11.0638H18.2887C17.7738 11.0638 17.3525 11.4851 17.3525 12Z" fill="#FFE81A"/>
<path d="M16.0324 16.5124C15.7235 16.9243 15.8077 17.4954 16.2197 17.795C16.7159 18.1601 17.2401 18.5533 17.7363 18.9278C18.1482 19.2367 18.7287 19.1525 19.0283 18.7405C19.0283 18.7312 19.0376 18.7312 19.0376 18.7218C19.3466 18.3099 19.2623 17.7295 18.8504 17.4299C18.3542 17.0554 17.8299 16.6622 17.3431 16.2971C16.9312 15.9881 16.3507 16.0817 16.0418 16.4937C16.0418 16.503 16.0324 16.5124 16.0324 16.5124Z" fill="#FFE81A"/>
<path d="M19.0468 5.26876C19.0468 5.2594 19.0375 5.2594 19.0375 5.25004C18.7285 4.83811 18.1481 4.75386 17.7455 5.06281C17.2493 5.43729 16.7157 5.83048 16.2289 6.20496C15.8169 6.51391 15.742 7.09436 16.051 7.49693C16.051 7.50629 16.0604 7.50629 16.0604 7.51565C16.3693 7.92758 16.9404 8.01183 17.3523 7.70288C17.8485 7.33776 18.3728 6.9352 18.869 6.56072C19.2715 6.26113 19.3464 5.68069 19.0468 5.26876Z" fill="#FFE81A"/>
<path d="M7.98964 9.1914H4.24484C3.21502 9.1914 2.37244 10.034 2.37244 11.0638V12.9362C2.37244 13.966 3.21502 14.8086 4.24484 14.8086H5.18104V17.6172C5.18104 18.1321 5.60233 18.5534 6.11724 18.5534C6.63215 18.5534 7.05344 18.1321 7.05344 17.6172V14.8086H7.98964L12.6706 17.6172V6.3828L7.98964 9.1914Z" fill="#FFE81A"/>
<path d="M15.0118 11.9999C15.0118 10.7548 14.4688 9.63132 13.6075 8.86364V15.1268C14.4688 14.3685 15.0118 13.2451 15.0118 11.9999Z" fill="#FFE81A"/>
</g>
</svg>
