<svg xmlns="http://www.w3.org/2000/svg" width="30" height="12" viewBox="0 0 30 12" fill="none">
  <path d="M23.5699 0.269989H6.2002C3.16263 0.269989 0.700195 2.73242 0.700195 5.76999C0.700195 8.80756 3.16263 11.27 6.2002 11.27H23.5699C26.6075 11.27 29.0699 8.80756 29.0699 5.76999C29.0699 2.73242 26.6075 0.269989 23.5699 0.269989Z" fill="#74CF00"/>
  <path d="M17.9335 8.97472L17.4189 4.09616H18.7878L18.9974 7.37394H19.0419L20.3759 4.09616H21.7194L21.9735 7.35486H22.0148L23.3043 4.09616H24.67L22.5325 8.97472H21.1L20.7698 5.90654H20.7094L19.3627 8.97472H17.9335Z" fill="white"/>
  <path d="M13.8623 9.07C13.3626 9.07 12.9487 8.96836 12.6205 8.76508C12.2923 8.55971 12.0615 8.26958 11.9281 7.89481C11.7968 7.5179 11.7746 7.07223 11.8614 6.55765C11.9461 6.05583 12.1165 5.61542 12.3727 5.23641C12.6311 4.85739 12.955 4.56201 13.3446 4.35026C13.7343 4.13852 14.1683 4.03265 14.6469 4.03265C14.9687 4.03265 15.2598 4.08453 15.5203 4.18828C15.7828 4.28992 16.001 4.44449 16.1746 4.652C16.3482 4.85739 16.4668 5.11465 16.5303 5.4238C16.596 5.73294 16.5949 6.09499 16.5272 6.51002L16.4668 6.88166H12.3505L12.4807 6.04313H15.3266C15.3583 5.84832 15.3456 5.67577 15.2884 5.52543C15.2312 5.37509 15.136 5.25758 15.0026 5.17288C14.8692 5.08607 14.7051 5.04266 14.5103 5.04266C14.3113 5.04266 14.1249 5.09136 13.9513 5.18876C13.7776 5.28616 13.6316 5.41427 13.513 5.57308C13.3965 5.72977 13.3214 5.90024 13.2875 6.08443L13.1382 6.91658C13.0959 7.17277 13.1043 7.38557 13.1636 7.55497C13.225 7.72437 13.3309 7.85142 13.4812 7.93612C13.6316 8.01867 13.8221 8.05998 14.0529 8.05998C14.2032 8.05998 14.3441 8.0388 14.4753 7.99645C14.6088 7.9541 14.7273 7.89162 14.8311 7.80907C14.9348 7.72437 15.0195 7.61954 15.0852 7.49463L16.3207 7.57719C16.2063 7.87787 16.0327 8.14044 15.7998 8.3649C15.5669 8.58721 15.2863 8.76084 14.9581 8.8858C14.632 9.00856 14.2668 9.07 13.8623 9.07Z" fill="white"/>
  <path d="M11.6212 2.47L10.5413 8.97474H9.35341L7.20956 4.88068H7.15874L6.47586 8.97474H5.10059L6.18047 2.47H7.38738L9.52176 6.56085H9.57577L10.2523 2.47H11.6212Z" fill="white"/>
</svg>