<svg xmlns="http://www.w3.org/2000/svg" width="24" height="25" viewBox="0 0 24 25" fill="none">
  <path d="M10.7331 5.9466C13.0625 5.669 15.4187 6.16141 17.442 7.34865C19.4653 8.53588 21.0444 10.3527 21.9381 12.5216C22.0215 12.7461 22.0215 12.9931 21.9381 13.2176C21.5701 14.1083 21.0844 14.9457 20.4941 15.7076M14.0841 15.0286C13.5183 15.5751 12.7605 15.8775 11.9739 15.8706C11.1873 15.8638 10.4349 15.5483 9.87868 14.9921C9.32245 14.4358 9.00695 13.6834 9.00011 12.8968C8.99328 12.1102 9.29566 11.3524 9.84214 10.7866" stroke="black" stroke-width="2" stroke-linecap="round" stroke-linejoin="round"/>
  <path d="M17.4795 18.3696C16.153 19.1554 14.673 19.6466 13.1399 19.81C11.6068 19.9734 10.0565 19.8051 8.59414 19.3165C7.13182 18.8279 5.7917 18.0305 4.66472 16.9784C3.53773 15.9262 2.65026 14.644 2.06251 13.2186C1.97916 12.9941 1.97916 12.7471 2.06251 12.5226C2.94914 10.3725 4.50918 8.56785 6.50851 7.37961M2.00051 2.87061L22.0005 22.8706" stroke="black" stroke-width="2" stroke-linecap="round" stroke-linejoin="round"/>
</svg>