<svg xmlns="http://www.w3.org/2000/svg" width="25" height="24" viewBox="0 0 25 24" fill="none">
  <g clip-path="url(#clip0_200_1917)">
    <path d="M18.9608 0.650391L18.2655 3.08466L15.8313 3.77994L18.2655 4.47522L18.9608 6.90948L19.6561 4.47522L22.0904 3.77994L19.6561 3.08466L18.9608 0.650391ZM4.68231 1.43278L4.25216 3.15418L2.53075 3.58434L4.25216 4.0145L4.68231 5.7359L5.11248 4.0145L6.83387 3.58434L5.11248 3.15418L4.68231 1.43278ZM11.8491 2.9326C11.5696 2.92772 11.3212 2.96955 11.1337 3.05313C10.9463 3.1367 10.8275 3.25849 10.7917 3.40403C10.7439 3.60529 10.8572 3.83733 11.1067 4.04941C11.3563 4.2615 11.7219 4.43635 12.1234 4.53574C12.525 4.63513 12.93 4.65095 13.2497 4.57976C13.5693 4.50857 13.7779 4.35616 13.8295 4.15585C13.8611 4.02859 13.8283 3.88752 13.734 3.74562C13.6397 3.6037 13.4868 3.4655 13.2897 3.34371C13.0925 3.22192 12.8572 3.12044 12.6054 3.0486C12.3537 2.97677 12.0937 2.93688 11.8491 2.9326ZM9.72428 3.7593C9.02578 3.73869 8.46885 3.97083 8.41546 4.33846C8.35365 4.76603 8.99672 5.21306 9.85187 5.33707C10.4778 5.42783 11.0406 5.31844 11.3235 5.08646C11.0477 4.9648 10.7971 4.81771 10.5961 4.64637C10.2964 4.39092 10.1046 4.09241 10.0314 3.78375C9.92693 3.77016 9.82406 3.76225 9.72428 3.7593ZM14.4767 4.62268C14.2107 5.11363 13.6054 5.41042 12.8148 5.41042C12.6513 5.41042 12.4841 5.39418 12.316 5.36992C12.3433 5.79006 13.0285 6.12709 13.8753 6.12709C14.7395 6.12709 15.4401 5.77697 15.4401 5.34471C15.4401 5.01924 15.0423 4.74082 14.4767 4.62268ZM7.75532 4.93288C7.0633 4.91607 6.5123 5.14705 6.4595 5.51203C6.39769 5.9396 7.04076 6.38664 7.89591 6.51065C8.67556 6.6237 9.35564 6.42701 9.51798 6.0675C9.07164 5.97596 8.65975 5.81403 8.34288 5.59379C8.07139 5.40484 7.87346 5.17855 7.75532 4.93288ZM21.308 6.12709L20.9168 7.69187L19.352 8.08306L20.9168 8.47425L21.308 10.039L21.6992 8.47425L23.2639 8.08306L21.6992 7.69187L21.308 6.12709ZM15.9024 6.16606C15.5061 6.6218 14.7732 6.90948 13.8753 6.90948C13.8753 7.34174 14.576 7.69187 15.4401 7.69187C16.3043 7.69187 17.0049 7.34174 17.0049 6.90948C17.0049 6.55819 16.5393 6.26504 15.9024 6.16606ZM11.137 6.51829C10.722 6.51829 10.324 6.60072 10.0305 6.74744C9.73709 6.89417 9.57223 7.09317 9.57223 7.30067C9.57223 7.50817 9.73709 7.70718 10.0305 7.85391C10.324 8.00063 10.722 8.08306 11.137 8.08306C11.552 8.08306 11.95 8.00063 12.2435 7.85391C12.5369 7.70718 12.7017 7.50817 12.7017 7.30067C12.7017 7.09317 12.5369 6.89417 12.2435 6.74744C11.95 6.60072 11.552 6.51829 11.137 6.51829ZM6.11262 6.53663C5.40691 6.61212 4.87791 6.92513 4.87791 7.30067C4.87791 7.73294 5.57854 8.08306 6.44268 8.08306C7.30683 8.08306 8.00707 7.73331 8.00745 7.30144C7.93234 7.29479 7.8587 7.29558 7.78359 7.28463C7.25196 7.20756 6.7558 7.02399 6.38691 6.76737C6.28402 6.69578 6.19437 6.618 6.11262 6.53663ZM17.2861 7.91038C17.1902 7.99058 17.0822 8.06396 16.9629 8.1289C17.2406 8.35619 17.396 8.60452 17.396 8.86545C17.396 9.94553 14.7688 10.8214 11.5282 10.8214C8.28755 10.8214 5.66029 9.94553 5.66029 8.86545C5.66029 8.83923 5.66787 8.81373 5.671 8.78751C5.37016 8.72453 5.10252 8.62363 4.87562 8.49335C4.62839 8.73277 4.48671 8.98906 4.48671 9.25664L4.70218 10.7618C3.93843 11.5524 3.39296 12.4811 3.1206 13.4902C3.10596 13.5439 3.09007 13.5973 3.07705 13.6515C3.05459 13.7458 3.03574 13.8408 3.01822 13.9365C3.01252 13.9672 3.00428 13.9972 2.99912 14.0282L3.0037 14.0273C2.95462 14.3229 2.92194 14.6228 2.92194 14.9289C2.92194 15.2342 2.94967 15.5343 2.99836 15.829C2.22112 15.6605 1.74836 15.2417 1.74836 14.9289C1.74836 14.6868 2.03263 14.3802 2.52006 14.1748C2.51106 13.597 2.52408 13.0345 2.67821 12.4931C1.21984 12.8034 0.183594 13.762 0.183594 14.9289C0.183594 16.3135 1.64271 17.4033 3.53472 17.4655C3.83989 18.0735 4.25521 18.6352 4.7549 19.1427L4.07719 21.8909C3.94457 22.4289 4.24371 22.9785 4.76712 23.1592C5.29054 23.34 5.86584 23.092 6.09352 22.587L6.93702 20.7128C8.26672 21.3822 9.83828 21.7748 11.5282 21.7748C13.2181 21.7748 14.7897 21.3822 16.1194 20.7128L16.9629 22.587C17.1905 23.092 17.7659 23.34 18.2892 23.1592C18.8127 22.9785 19.1118 22.4289 18.9792 21.8909L18.3015 19.1427C18.8012 18.6352 19.2165 18.0735 19.5216 17.4655C21.4137 17.4033 22.8728 16.3135 22.8728 14.9289C22.8728 13.7592 21.8317 12.7991 20.3683 12.4908C20.5188 13.0322 20.5369 13.5951 20.5325 14.1725C21.0227 14.3779 21.308 14.6864 21.308 14.9289C21.308 15.2417 20.8353 15.6605 20.058 15.829C20.1068 15.5343 20.1344 15.2342 20.1344 14.9289C20.1344 14.623 20.1016 14.3234 20.0527 14.0282C20.0549 14.0286 20.0574 14.0285 20.0596 14.0289C20.0519 13.9824 20.0402 13.9368 20.0313 13.8906C20.0183 13.8231 20.0047 13.7558 19.9893 13.6889C19.9639 13.5792 19.934 13.4712 19.9022 13.3634C19.8852 13.3059 19.8713 13.2476 19.8525 13.1907C19.8034 13.0417 19.7472 12.8947 19.6859 12.7498C19.6587 12.6854 19.6277 12.6225 19.5981 12.5588C19.5723 12.5034 19.5492 12.4471 19.5216 12.3923H19.5156C19.2202 11.8053 18.8313 11.2557 18.3542 10.7618L18.5696 9.25664C18.5696 8.75473 18.0911 8.2914 17.2861 7.91038ZM8.46971 8.12202C8.07342 8.57777 7.34047 8.86545 6.44268 8.86545C6.44268 9.29771 7.14331 9.64783 8.00745 9.64783C8.8716 9.64783 9.57223 9.29771 9.57223 8.86545C9.57223 8.51416 9.10657 8.221 8.46971 8.12202ZM13.9846 8.16176C13.4589 8.28772 13.0929 8.55444 13.0929 8.86545C13.0929 9.29771 13.7936 9.64783 14.6577 9.64783C15.5219 9.64783 16.2225 9.29771 16.2225 8.86545C16.2225 8.70779 16.1273 8.56118 15.9666 8.43835C15.7987 8.46104 15.6232 8.47425 15.4401 8.47425C14.8756 8.47425 14.377 8.35931 13.9846 8.16176ZM11.5282 8.86545C11.0368 8.86545 10.6036 8.98087 10.3164 9.15808C10.262 9.37519 10.1484 9.57313 9.98329 9.74487C10.0799 10.1306 10.7305 10.4302 11.5282 10.4302C12.1619 10.4302 12.7048 10.2414 12.9508 9.97026C12.5827 9.71716 12.3546 9.3733 12.3183 8.97623C12.0858 8.90738 11.8176 8.86545 11.5282 8.86545Z" fill="#185745"/>
  </g>
  <defs>
    <clipPath id="clip0_200_1917">
      <rect width="23.9932" height="22.95" fill="white" transform="translate(0.0527344 0.519989)"/>
    </clipPath>
  </defs>
</svg>