<svg xmlns="http://www.w3.org/2000/svg" width="25" height="24" viewBox="0 0 25 24" fill="none">
  <path d="M8.67427 11.995C8.67427 13.055 7.81503 13.9142 6.7551 13.9142C5.69518 13.9142 4.83594 13.055 4.83594 11.995C4.83594 10.935 5.69518 10.0758 6.7551 10.0758C7.81503 10.0758 8.67427 10.935 8.67427 11.995Z" fill="#185745"/>
  <path d="M14.4321 11.995C14.4321 13.055 13.5729 13.9142 12.5129 13.9142C11.4531 13.9142 10.5938 13.055 10.5938 11.995C10.5938 10.935 11.4531 10.0758 12.5129 10.0758C13.5729 10.0758 14.4321 10.935 14.4321 11.995Z" fill="#185745"/>
  <path d="M20.1899 11.995C20.1899 13.055 19.3307 13.9142 18.2707 13.9142C17.2109 13.9142 16.3516 13.055 16.3516 11.995C16.3516 10.935 17.2109 10.0758 18.2707 10.0758C19.3307 10.0758 20.1899 10.935 20.1899 11.995Z" fill="#185745"/>
</svg>