<svg width="22" height="16" viewBox="0 0 22 16" fill="none" xmlns="http://www.w3.org/2000/svg">
<path fill-rule="evenodd" clip-rule="evenodd" d="M2 0C0.895431 0 0 0.895431 0 2V9C0 10.1046 0.89543 11 2 11H14.1818L11 16L20 11C21.1046 11 22 10.1046 22 9V7.27273V2C22 0.895431 21.1046 0 20 0H2Z" fill="#FF555F"/>
<path d="M14.0335 2.40847L8.40845 8.03347C8.34983 8.09201 8.27037 8.12488 8.18753 8.12486C8.10468 8.12483 8.02524 8.09191 7.96666 8.03333C7.90808 7.97475 7.87516 7.8953 7.87513 7.81246C7.8751 7.72961 7.90798 7.65015 7.96652 7.59153L13.5915 1.96653C13.6501 1.90799 13.7296 1.87512 13.8124 1.87514C13.8953 1.87517 13.9747 1.90809 14.0333 1.96667C14.0919 2.02525 14.1248 2.1047 14.1248 2.18754C14.1249 2.27038 14.092 2.34985 14.0335 2.40847ZM7.97438 3.96312C7.74376 3.73302 7.60008 3.43006 7.56783 3.10589C7.53558 2.78171 7.61676 2.45638 7.79752 2.18536C7.97828 1.91433 8.24744 1.71439 8.55913 1.6196C8.87081 1.52481 9.20571 1.54106 9.50676 1.66556C9.80781 1.79006 10.0564 2.01511 10.2101 2.30235C10.3637 2.5896 10.4131 2.92125 10.3496 3.24079C10.2861 3.56032 10.1138 3.84795 9.862 4.05466C9.6102 4.26136 9.29451 4.37434 8.96873 4.37434C8.78404 4.37493 8.60105 4.33889 8.43037 4.26831C8.25969 4.19772 8.10471 4.09399 7.97438 3.96312ZM8.18748 2.96875C8.18748 3.09723 8.21917 3.22372 8.27973 3.33703C8.3403 3.45034 8.42787 3.54696 8.53469 3.61834C8.64152 3.68972 8.7643 3.73365 8.89216 3.74624C9.02002 3.75883 9.14901 3.7397 9.26771 3.69053C9.3864 3.64137 9.49114 3.56369 9.57265 3.46437C9.65415 3.36506 9.70991 3.24718 9.73497 3.12117C9.76004 2.99516 9.75364 2.86491 9.71634 2.74197C9.67905 2.61902 9.61201 2.50717 9.52116 2.41632C9.4119 2.30706 9.27269 2.23265 9.12115 2.2025C8.9696 2.17236 8.81251 2.18783 8.66976 2.24696C8.527 2.3061 8.40499 2.40623 8.31915 2.53471C8.2333 2.66319 8.18748 2.81423 8.18748 2.96875ZM14.4375 7.03125C14.4375 7.35659 14.3247 7.67187 14.1183 7.92337C13.9119 8.17487 13.6247 8.34702 13.3056 8.41049C12.9865 8.47397 12.6553 8.42484 12.3683 8.27148C12.0814 8.11811 11.8565 7.87 11.732 7.56943C11.6075 7.26885 11.5911 6.9344 11.6855 6.62306C11.78 6.31173 11.9794 6.04277 12.2499 5.86201C12.5205 5.68126 12.8453 5.59989 13.1691 5.63178C13.4928 5.66367 13.7955 5.80683 14.0256 6.03688C14.1566 6.16716 14.2604 6.32212 14.3311 6.49281C14.4018 6.66349 14.438 6.8465 14.4375 7.03125ZM13.8125 7.03125C13.8125 6.8505 13.7498 6.67535 13.6352 6.53562C13.5205 6.3959 13.3609 6.30026 13.1836 6.265C13.0064 6.22974 12.8224 6.25703 12.663 6.34224C12.5035 6.42744 12.3786 6.56528 12.3094 6.73227C12.2403 6.89926 12.2311 7.08506 12.2836 7.25803C12.3361 7.43099 12.4469 7.58042 12.5972 7.68083C12.7475 7.78125 12.9279 7.82645 13.1078 7.80874C13.2877 7.79102 13.4559 7.71148 13.5837 7.58368C13.6564 7.5113 13.7141 7.42521 13.7534 7.33039C13.7927 7.23556 13.8128 7.13389 13.8125 7.03125Z" fill="white"/>
</svg>
