<svg xmlns="http://www.w3.org/2000/svg" width="24" height="24" viewBox="0 0 24 24" fill="none">
  <mask id="mask0_32_26087" style="mask-type:luminance" maskUnits="userSpaceOnUse" x="0" y="0" width="24" height="24">
    <path d="M24 0H0V24H24V0Z" fill="white"/>
  </mask>
  <g mask="url(#mask0_32_26087)">
    <path d="M9.51736 0.990817C9.20189 1.01238 8.89768 1.16988 8.68768 1.43988L7.43986 3.11988L5.27986 3.2155C4.75186 3.2155 4.27224 3.6475 4.22424 4.1755L3.88768 6.23988L2.06424 7.2955C1.58424 7.5835 1.39149 8.11188 1.53549 8.63988L2.20768 10.6555L1.10424 12.4799C0.816237 12.9119 0.911487 13.5359 1.29549 13.9199L2.78424 15.3599L2.59205 17.4721C2.54405 18.0001 2.87968 18.5281 3.40768 18.6721L5.42424 19.2477L6.23986 21.2155C6.43186 21.6955 7.00749 21.9837 7.53549 21.8877L9.59986 21.4555L11.232 22.7999C11.4241 22.9439 11.7121 23.0399 11.9521 23.0399C12.192 23.0399 12.4801 22.9439 12.6721 22.7999L14.3042 21.4555L16.3677 21.8877C16.8957 21.9837 17.4242 21.6955 17.6642 21.2155L18.4799 19.2477L20.4955 18.6721C21.0235 18.5281 21.36 18.0481 21.312 17.4721L21.2155 15.3599L22.752 13.8721C23.136 13.4881 23.2322 12.9119 22.9442 12.4799L21.792 10.7043L22.4642 8.68769C22.6562 8.15969 22.4155 7.63225 21.9355 7.34425L20.112 6.23988L19.7755 4.12769C19.6795 3.59969 19.2479 3.21569 18.7199 3.16769L16.6077 3.07207L15.312 1.43988C14.9761 1.00788 14.3999 0.864255 13.9199 1.10425L11.9999 2.0155L10.0799 1.10425C9.89986 1.01425 9.70664 0.97788 9.51736 0.990817ZM9.35986 6.71988C10.1279 6.71988 10.7042 7.15207 10.9442 7.87207C11.0402 8.16007 11.0399 8.30388 11.0399 9.35988C11.0399 10.4159 10.9922 10.6077 10.9442 10.8477C10.7042 11.5197 10.1279 11.9999 9.35986 11.9999C8.59186 11.9999 8.01549 11.5677 7.77549 10.8477C7.67949 10.5597 7.67986 10.4159 7.67986 9.35988C7.67986 8.30388 7.72749 8.11207 7.77549 7.87207C8.01549 7.20007 8.59186 6.71988 9.35986 6.71988ZM14.6399 6.71988H15.312C15.4081 6.71988 15.4077 6.81625 15.4077 6.86425L9.64768 17.1355C9.59968 17.2315 9.55149 17.2799 9.45549 17.2799H8.78424C8.68824 17.2799 8.63968 17.1835 8.68768 17.1355L14.3999 6.86425C14.4479 6.76825 14.4959 6.71988 14.6399 6.71988ZM9.35986 7.72769C9.02386 7.72769 8.78368 7.91969 8.68768 8.20769C8.63968 8.35169 8.63986 8.49569 8.63986 9.40769C8.63986 10.3197 8.68768 10.4159 8.68768 10.5599C8.78368 10.8959 9.02386 11.0399 9.35986 11.0399C9.69586 11.0399 9.93605 10.8479 10.0321 10.5599C10.0801 10.4159 10.0799 10.2717 10.0799 9.40769C10.0799 8.49569 10.0321 8.35169 10.0321 8.20769C9.93605 7.87169 9.69586 7.72769 9.35986 7.72769ZM14.6399 11.9999C15.4079 11.9999 15.9842 12.4321 16.2242 13.1521C16.3202 13.4401 16.3199 13.5839 16.3199 14.6399C16.3199 15.6959 16.2722 15.8877 16.2242 16.1277C15.9842 16.7997 15.4079 17.2799 14.6399 17.2799C13.8719 17.2799 13.2955 16.8477 13.0555 16.1277C12.9595 15.8397 12.9599 15.6959 12.9599 14.6399C12.9599 13.5839 13.0075 13.3921 13.0555 13.1521C13.2955 12.4801 13.8719 11.9999 14.6399 11.9999ZM14.6399 12.9599C14.3039 12.9599 14.0637 13.1519 13.9677 13.4399C13.9197 13.5839 13.9199 13.7279 13.9199 14.6399C13.9199 15.5519 13.9677 15.6481 13.9677 15.7921C14.0637 16.1281 14.3039 16.2721 14.6399 16.2721C14.9759 16.2721 15.2161 16.0801 15.312 15.7921C15.3601 15.6481 15.3599 15.5039 15.3599 14.6399C15.3599 13.7279 15.312 13.5839 15.312 13.4399C15.2161 13.1519 14.9759 12.9599 14.6399 12.9599Z" fill="#185745"/>
  </g>
</svg>