<svg xmlns="http://www.w3.org/2000/svg" width="25" height="25" viewBox="0 0 25 25" fill="none">
  <path fill-rule="evenodd" clip-rule="evenodd" d="M15.116 3.60799L12.227 1.87549L9.33805 3.60799L5.98255 3.90499L4.66255 7.00399L2.12305 9.21649L2.87755 12.5L2.12305 15.7835L4.66255 17.996L5.98255 21.095L9.33805 21.392L12.227 23.1245L15.116 21.392L18.4715 21.095L19.7915 17.996L22.3325 15.7835L21.575 12.5L22.331 9.21649L19.79 7.00399L18.47 3.90499L15.116 3.60799ZM8.75005 10.25C8.75005 10.0511 8.82906 9.86031 8.96972 9.71966C9.11037 9.57901 9.30114 9.49999 9.50005 9.49999C9.69896 9.49999 9.88972 9.57901 10.0304 9.71966C10.171 9.86031 10.25 10.0511 10.25 10.25C10.25 10.4489 10.171 10.6397 10.0304 10.7803C9.88972 10.921 9.69896 11 9.50005 11C9.30114 11 9.11037 10.921 8.96972 10.7803C8.82906 10.6397 8.75005 10.4489 8.75005 10.25ZM9.50005 7.99999C8.90331 7.99999 8.33101 8.23704 7.90906 8.659C7.4871 9.08096 7.25005 9.65325 7.25005 10.25C7.25005 10.8467 7.4871 11.419 7.90906 11.841C8.33101 12.2629 8.90331 12.5 9.50005 12.5C10.0968 12.5 10.6691 12.2629 11.091 11.841C11.513 11.419 11.75 10.8467 11.75 10.25C11.75 9.65325 11.513 9.08096 11.091 8.659C10.6691 8.23704 10.0968 7.99999 9.50005 7.99999ZM9.28105 16.781L16.781 9.28099L15.719 8.21899L8.21905 15.719L9.28105 16.781ZM14.75 15.5C14.75 15.3011 14.8291 15.1103 14.9697 14.9697C15.1104 14.829 15.3011 14.75 15.5 14.75C15.699 14.75 15.8897 14.829 16.0304 14.9697C16.171 15.1103 16.25 15.3011 16.25 15.5C16.25 15.6989 16.171 15.8897 16.0304 16.0303C15.8897 16.171 15.699 16.25 15.5 16.25C15.3011 16.25 15.1104 16.171 14.9697 16.0303C14.8291 15.8897 14.75 15.6989 14.75 15.5ZM15.5 13.25C14.9033 13.25 14.331 13.487 13.9091 13.909C13.4871 14.331 13.25 14.9033 13.25 15.5C13.25 16.0967 13.4871 16.669 13.9091 17.091C14.331 17.5129 14.9033 17.75 15.5 17.75C16.0968 17.75 16.6691 17.5129 17.091 17.091C17.513 16.669 17.75 16.0967 17.75 15.5C17.75 14.9033 17.513 14.331 17.091 13.909C16.6691 13.487 16.0968 13.25 15.5 13.25Z" fill="#626262"/>
</svg>