<svg xmlns="http://www.w3.org/2000/svg" width="24" height="24" viewBox="0 0 24 24" fill="none">
  <g clip-path="url(#clip0_20_24581)">
    <path d="M23.1904 7.85173C22.6061 6.3408 21.7149 4.98332 20.5876 3.85602C19.5902 2.85856 18.4157 2.04997 17.1113 1.47157C15.6829 0.834137 14.1071 0.480011 12.4486 0.480011C10.9848 0.480011 9.59197 0.757409 8.30532 1.25319C6.79438 1.8375 5.4369 2.72871 4.30959 3.85602C3.31214 4.85347 2.50355 6.02799 1.92514 7.32645C1.28772 8.75476 0.933594 10.3306 0.933594 11.9891C0.933594 13.447 1.21099 14.8457 1.70677 16.1323C2.29108 17.6433 3.18229 19.0008 4.30959 20.1282C5.30705 21.1255 6.48157 21.9342 7.78593 22.5125C9.21424 23.15 10.7901 23.5041 12.4486 23.5041C13.9064 23.5041 15.3053 23.2267 16.5919 22.7309C18.1028 22.1466 19.4603 21.2554 20.5876 20.1282C21.5851 19.1307 22.3936 17.9561 22.972 16.6518C23.6095 15.2234 23.9636 13.6476 23.9636 11.9891C23.9636 10.5313 23.6862 9.13249 23.1904 7.84583V7.85173ZM20.3751 4.06259C21.4729 5.16038 22.3405 6.48244 22.913 7.95208L20.1095 9.03215C19.6905 7.95208 19.059 6.98412 18.2563 6.18144L20.381 4.05669L20.3751 4.06259ZM5.74971 9.02625C6.11564 8.19996 6.63503 7.4504 7.26655 6.81296L10.2885 9.83484C10.0228 10.1004 9.81039 10.4074 9.65686 10.7556L5.7438 9.02035L5.74971 9.02625ZM9.6038 13.0928L5.60806 14.6333C5.28935 13.8128 5.11228 12.9275 5.11228 11.995H9.39131C9.39131 12.3787 9.46803 12.7505 9.59788 13.0928H9.6038ZM11.9587 11.995C11.9587 11.995 11.9529 12.0364 11.9529 12.054C11.9529 12.0954 11.9587 12.1366 11.9705 12.178L10.4359 12.7741C10.3415 12.5321 10.2885 12.2724 10.2885 11.995H11.9587ZM10.4714 11.1156C10.5835 10.8736 10.7311 10.6493 10.92 10.4604L12.1299 11.6704C12.0885 11.7058 12.0473 11.7472 12.0237 11.8002L10.4773 11.1156H10.4714ZM12.0709 12.3727C12.1121 12.4259 12.1653 12.4672 12.2302 12.4967L11.5751 13.9722C11.3331 13.8601 11.1088 13.7126 10.92 13.5236L12.0709 12.3727ZM11.6695 9.97649C11.9115 9.88206 12.1712 9.82894 12.4486 9.82894V11.5524C12.3955 11.5524 12.3424 11.5642 12.2892 11.5819L11.6695 9.97649ZM12.4486 12.5557C12.5194 12.5557 12.5844 12.538 12.6492 12.5144L13.2277 14.0135C12.9857 14.1079 12.726 14.1611 12.4486 14.1611V12.5557ZM12.6256 11.5878L13.3221 10.0178C13.5641 10.124 13.7883 10.2775 13.9772 10.4664L12.7674 11.6763C12.726 11.6409 12.6788 11.6114 12.6256 11.5937V11.5878ZM12.8264 12.3727C12.8676 12.3255 12.8972 12.2665 12.9208 12.2016L14.4258 12.8685C14.3196 13.1105 14.1661 13.3348 13.9772 13.5236L12.8264 12.3727ZM12.9384 11.995C12.9326 11.936 12.9148 11.877 12.8854 11.8238L14.4612 11.2159C14.5556 11.4579 14.6088 11.7176 14.6088 11.995H12.9384ZM15.2343 13.2286L19.1475 14.9638C18.7815 15.7901 18.2622 16.5396 17.6306 17.177L14.6088 14.1552C14.8744 13.8896 15.0869 13.5826 15.2403 13.2344L15.2343 13.2286ZM15.5 11.995C15.5 11.6055 15.4233 11.2395 15.2935 10.8972L19.2892 9.35677C19.6078 10.1772 19.779 11.0625 19.779 11.995H15.5ZM17.6306 6.81296L14.6088 9.83484C14.3432 9.56925 14.0304 9.35677 13.6881 9.20331L15.4233 5.29022C16.2496 5.65616 16.9991 6.17554 17.6366 6.80706L17.6306 6.81296ZM12.4486 0.775116C14.0658 0.775116 15.6062 1.12334 16.9933 1.73716L15.7774 4.48164C14.7622 4.02718 13.6349 3.77339 12.4486 3.77339V0.775116ZM12.4486 4.6646V8.94362C12.0591 8.94362 11.6931 9.02035 11.3508 9.1502L9.8104 5.15448C10.6307 4.83576 11.5161 4.6587 12.4486 4.6587V4.6646ZM8.41155 1.53058L9.49164 4.33408C8.41155 4.75313 7.44361 5.39056 6.64093 6.19325L4.51617 4.06849C5.61396 2.9707 6.93603 2.10309 8.41155 1.53058ZM1.2287 11.995C1.2287 10.3778 1.57692 8.83739 2.19665 7.4504L4.94112 8.66623C4.48665 9.68139 4.23286 10.8087 4.23286 11.995H1.2287ZM4.51617 19.9274C3.41838 18.8296 2.55077 17.5075 1.97827 16.0321L4.78176 14.952C5.20081 16.0261 5.83234 17 6.64093 17.8027L4.51617 19.9274ZM7.26655 17.177L10.2885 14.1552C10.554 14.4207 10.8668 14.6333 11.2092 14.7867L9.47394 18.6998C8.64764 18.3338 7.89807 17.8145 7.26065 17.183L7.26655 17.177ZM12.4486 23.2149C10.8314 23.2149 9.29687 22.8667 7.90398 22.247L9.11981 19.5025C10.1349 19.957 11.2622 20.2108 12.4486 20.2108V23.2149ZM12.4486 19.3255V15.0464C12.8382 15.0464 13.2041 14.9696 13.5463 14.8398L15.0869 18.8356C14.2664 19.1543 13.3811 19.3313 12.4486 19.3313V19.3255ZM16.4856 22.4595L15.4055 19.6559C16.4856 19.2369 17.4536 18.5994 18.2563 17.8027L20.381 19.9274C19.2832 21.0253 17.9612 21.8928 16.4856 22.4595ZM22.7006 16.5396L19.9501 15.3238C20.4047 14.3087 20.6584 13.1813 20.6584 11.995H23.6626C23.6626 13.6122 23.3143 15.1468 22.6946 16.5396H22.7006Z" fill="#006622"/>
  </g>
  <defs>
    <clipPath id="clip0_20_24581">
      <rect width="23.9896" height="23.03" fill="white" transform="translate(0.00488281 0.480011)"/>
    </clipPath>
  </defs>
</svg>