<svg xmlns="http://www.w3.org/2000/svg" width="25" height="24" viewBox="0 0 25 24" fill="none">
  <g clip-path="url(#clip0_200_1928)">
    <mask id="mask0_200_1928" style="mask-type:luminance" maskUnits="userSpaceOnUse" x="0" y="0" width="25" height="24">
      <path d="M24.3301 0H0.330078V24H24.3301V0Z" fill="white"/>
    </mask>
    <g mask="url(#mask0_200_1928)">
      <path d="M21.2174 6.075C20.9737 6.01875 20.7487 5.98125 20.5049 5.98125L20.3924 5.8125L22.4549 0.75V0.1875H1.82994V0.75C1.82994 2.86875 3.44244 4.65 5.56119 4.85625L8.95494 5.19375L8.57994 8.25L4.64244 9.225C2.67369 9.73125 1.43619 11.7187 1.90494 13.7062L4.07994 23.25V23.8125H21.4799L21.8174 21.4875C22.3799 18.5812 22.7549 15.6375 22.9612 12.675L23.1674 9.43125C23.5612 7.96875 22.6799 6.46875 21.2174 6.075Z" fill="white"/>
      <path d="M4.90444 19.4437C4.86694 20.6812 5.33569 21.9187 6.14194 22.7624C6.77944 23.4187 7.54819 23.7749 8.39194 23.7937C9.51694 23.8124 10.1732 23.5874 10.7544 23.3999C11.2044 23.2499 11.5982 23.1187 12.1794 23.1374C12.4982 23.1374 12.8919 23.2874 13.2482 23.4562C13.6794 23.6249 14.1107 23.8124 14.5607 23.8124C14.5794 23.8124 14.5794 23.8124 14.5982 23.8124H14.6169C14.6357 23.8124 14.6357 23.8124 14.6357 23.8124C14.6544 23.8124 14.6732 23.8124 14.6919 23.8124C14.7107 23.8124 14.7107 23.8124 14.7294 23.8124C14.7482 23.8124 14.7669 23.8124 14.7669 23.7937C14.7857 23.7937 14.7857 23.7749 14.8044 23.7749C14.8232 23.7749 14.8232 23.7562 14.8419 23.7562C14.8607 23.7562 14.8607 23.7374 14.8794 23.7374C14.8982 23.7374 14.8982 23.7187 14.9169 23.7187C14.9357 23.7187 14.9357 23.6999 14.9544 23.6999C14.9732 23.6812 14.9732 23.6812 14.9919 23.6624C15.0107 23.6437 15.0107 23.6437 15.0107 23.6249C15.0294 23.6062 15.0294 23.6062 15.0482 23.5874C15.0482 23.5687 15.0669 23.5687 15.0669 23.5499C15.0669 23.5312 15.0857 23.5312 15.0857 23.5124C15.0857 23.4937 15.1044 23.4937 15.1044 23.4749C15.1044 23.4562 15.1232 23.4562 15.1232 23.4374L16.5669 19.1999C16.5857 19.1624 16.5857 19.1437 16.5857 19.1062L18.0669 10.0874C18.1232 9.78741 17.9169 9.48741 17.5982 9.44991C17.2982 9.39366 16.9982 9.59991 16.9607 9.91866L15.6294 18.1312C15.5919 18.3749 15.3857 18.5812 15.1419 18.5999C14.7857 18.6374 14.3732 18.6749 13.9607 18.7124C13.6044 18.7312 13.3232 18.4499 13.3607 18.0937C13.4169 17.5874 13.4732 16.9687 13.4732 16.9687C13.5107 16.6687 13.2857 16.4062 13.0044 16.3499C12.7044 16.3124 12.4232 16.4999 12.3669 16.7999C12.2919 17.1749 12.0294 18.0562 11.5232 18.6187C11.4107 18.7499 11.2607 18.8062 11.0919 18.8062C9.51694 18.7312 7.88569 18.4874 6.49819 17.8124C6.29194 17.7187 6.16069 17.5124 6.17944 17.2874L6.38569 12.8812C6.40444 12.5249 6.08569 12.2437 5.72944 12.2812C5.44819 12.3187 5.24194 12.5437 5.22319 12.8249L4.90444 19.4437Z" fill="#185745"/>
      <path d="M21.4048 5.53125C21.3861 5.53125 21.3861 5.53125 21.3861 5.53125C21.3486 5.5125 21.3111 5.5125 21.2923 5.5125L22.9986 0.95625C23.1111 0.65625 22.9611 0.3375 22.6611 0.225C22.5861 0.20625 22.5298 0.1875 22.4548 0.1875H18.7986C17.8048 1.70625 15.7048 4.70625 13.6986 4.70625C12.1986 4.70625 9.16106 1.6875 9.14231 0.1875H1.82981C1.51106 0.1875 1.26731 0.45 1.26731 0.75C1.26731 3.1875 3.08606 5.19375 5.50481 5.41875L8.31731 5.68125L8.05481 7.78125L4.49231 8.6625C2.22356 9.225 0.817308 11.5312 1.34231 13.8L3.51731 23.3438C3.57356 23.6062 3.81731 23.775 4.06106 23.775C4.09856 23.775 4.13606 23.775 4.19231 23.7562C4.49231 23.6812 4.67981 23.3812 4.62356 23.0812L2.44856 13.575C2.07356 11.8875 3.10481 10.1812 4.77356 9.76875L5.35481 9.61875L6.51731 9.35625L8.29856 8.90625L8.65481 9.61875C8.74856 9.825 8.95481 9.9375 9.16106 9.9375C9.25481 9.9375 9.32981 9.91875 9.40481 9.88125C9.68606 9.75 9.79856 9.4125 9.64856 9.13125C9.32981 8.5125 9.21731 7.8 9.32981 7.125L9.70481 4.8375C9.77981 4.35 10.4173 4.2 10.7173 4.59375C11.0923 5.1 11.4486 5.625 11.7111 6C12.4236 7.0125 13.2861 7.89375 14.3548 7.6125L13.3423 8.625C13.1173 8.85 13.1173 9.20625 13.3423 9.4125C13.4548 9.525 13.6048 9.58125 13.7361 9.58125C13.8861 9.58125 14.0173 9.525 14.1298 9.4125L16.1736 7.3875L19.6798 6.5625C20.1298 6.45 20.6173 6.46875 21.0673 6.6C21.0673 6.6 21.0673 6.6 21.0861 6.6C21.0861 6.6 21.0861 6.6 21.1048 6.6C21.6673 6.75 22.1361 7.10625 22.4361 7.6125C22.7361 8.11875 22.8111 8.7 22.6611 9.2625L22.6423 9.3375L20.4673 17.4938L19.7736 20.0812L18.4611 22.9125C18.4236 23.0062 18.4048 23.1 18.4048 23.1937C18.3861 23.4 18.4798 23.625 18.6673 23.7375C18.7611 23.7937 18.8548 23.8125 18.9486 23.8125C19.1173 23.8125 19.2861 23.7375 19.3986 23.5875L21.4048 20.9625L20.9923 23.1562C20.9361 23.4563 21.1423 23.7562 21.4423 23.8125C21.4798 23.8125 21.5173 23.8312 21.5548 23.8312C21.8173 23.8312 22.0611 23.6437 22.0986 23.3625L23.2423 17.2313C23.2423 17.1938 23.2611 17.1562 23.2423 17.1V17.0625C23.2423 17.025 23.2423 16.9875 23.2236 16.95C23.2236 16.9313 23.2236 16.9312 23.2048 16.9125C23.1861 16.875 23.1861 16.8562 23.1673 16.8187L23.1486 16.8C23.1298 16.7625 23.0923 16.725 23.0548 16.7062C23.0548 16.7062 23.0361 16.7063 23.0361 16.6875C23.0173 16.6687 22.9798 16.65 22.9423 16.6312C22.9236 16.6312 22.9236 16.6125 22.9048 16.6125C22.8673 16.5937 22.8486 16.5938 22.8111 16.575C22.7923 16.575 22.7923 16.575 22.7736 16.5563C22.7736 16.5563 22.7736 16.5563 22.7548 16.5563C22.7173 16.5563 22.6798 16.5375 22.6423 16.5563H22.6236C22.5861 16.5563 22.5486 16.5563 22.5111 16.575H22.4923L21.7611 16.8L23.6923 9.5625C24.1798 7.81875 23.1486 6.01875 21.4048 5.53125Z" fill="#185745"/>
    </g>
  </g>
  <defs>
    <clipPath id="clip0_200_1928">
      <rect width="24" height="24" fill="white" transform="translate(0.330078)"/>
    </clipPath>
  </defs>
</svg>