<svg xmlns="http://www.w3.org/2000/svg" width="24" height="24" viewBox="0 0 24 24" fill="none">
  <g clip-path="url(#clip0_20_24619)">
    <mask id="mask0_20_24619" style="mask-type:luminance" maskUnits="userSpaceOnUse" x="0" y="0" width="24" height="24">
      <path d="M23.9636 0.480011H0.933594V23.51H23.9636V0.480011Z" fill="white"/>
    </mask>
    <g mask="url(#mask0_20_24619)">
      <path d="M23.6517 7.72169L16.7222 0.791764C16.3063 0.375931 15.6323 0.375931 15.216 0.791764L8.28649 7.72169C7.87065 8.13752 7.87065 8.81158 8.28649 9.2278L10.0577 10.9991H11.7986C12.7065 10.9991 13.4448 11.7374 13.4448 12.6447V14.3861L15.216 16.1573C15.6323 16.5732 16.3063 16.5732 16.7222 16.1573L23.6517 9.2278C24.0679 8.81158 24.0679 8.13752 23.6517 7.72169ZM12.1981 9.41563C11.778 9.83568 11.0967 9.83568 10.6767 9.41563C10.2566 8.9952 10.2566 8.31427 10.6767 7.89422C11.0967 7.47379 11.778 7.47379 12.1981 7.89422C12.6181 8.31427 12.6181 8.9952 12.1981 9.41563ZM16.5496 13.7672C16.1295 14.1872 15.4482 14.1872 15.0282 13.7672C14.6081 13.3468 14.6081 12.6658 15.0282 12.2457C15.4482 11.8254 16.1295 11.8254 16.5496 12.2457C16.9697 12.6658 16.9697 13.3468 16.5496 13.7672ZM16.91 4.70374C16.49 5.12379 15.8089 5.12379 15.3885 4.70374C14.9685 4.28331 14.9685 3.60238 15.3885 3.18194C15.8089 2.7619 16.49 2.7619 16.91 3.18194C17.3304 3.60238 17.3304 4.28331 16.91 4.70374ZM21.2615 9.05488C20.8415 9.4753 20.1606 9.4753 19.7401 9.05488C19.3201 8.63484 19.3201 7.9539 19.7401 7.53347C20.1606 7.11343 20.8415 7.11343 21.2615 7.53347C21.6819 7.9539 21.6819 8.63484 21.2615 9.05488Z" fill="#006622"/>
      <path d="M11.7985 11.5801H1.99862C1.41025 11.5801 0.933594 12.0568 0.933594 12.6447V22.445C0.933594 23.0329 1.41025 23.51 1.99862 23.51H11.7985C12.3868 23.51 12.8635 23.0329 12.8635 22.445V12.6447C12.8635 12.0568 12.3868 11.5801 11.7985 11.5801ZM3.56669 21.6978C2.97259 21.6978 2.49096 21.2162 2.49096 20.6221C2.49096 20.028 2.97259 19.546 3.56669 19.546C4.1608 19.546 4.64243 20.0276 4.64243 20.6221C4.64243 21.2166 4.1608 21.6978 3.56669 21.6978ZM3.56669 15.5437C2.97259 15.5437 2.49096 15.0621 2.49096 14.4679C2.49096 13.8739 2.97259 13.3923 3.56669 13.3923C4.1608 13.3923 4.64243 13.8739 4.64243 14.4679C4.64243 15.0621 4.1608 15.5437 3.56669 15.5437ZM6.89872 18.6205C6.30424 18.6205 5.82261 18.1389 5.82261 17.5448C5.82261 16.9508 6.30424 16.4692 6.89872 16.4692C7.49321 16.4692 7.97446 16.9508 7.97446 17.5448C7.97446 18.1389 7.49283 18.6205 6.89872 18.6205ZM10.2304 21.6978C9.63623 21.6978 9.15463 21.2162 9.15463 20.6221C9.15463 20.028 9.63623 19.546 10.2304 19.546C10.8245 19.546 11.3061 20.0276 11.3061 20.6221C11.3061 21.2166 10.8245 21.6978 10.2304 21.6978ZM10.2304 15.5437C9.63623 15.5437 9.15463 15.0621 9.15463 14.4679C9.15463 13.8739 9.63623 13.3923 10.2304 13.3923C10.8245 13.3923 11.3061 13.8739 11.3061 14.4679C11.3061 15.0621 10.8245 15.5437 10.2304 15.5437Z" fill="#006622"/>
    </g>
  </g>
  <defs>
    <clipPath id="clip0_20_24619">
      <rect width="23.9896" height="23.03" fill="white" transform="translate(0.00488281 0.480011)"/>
    </clipPath>
  </defs>
</svg> 