<svg xmlns="http://www.w3.org/2000/svg" width="25" height="24" viewBox="0 0 25 24" fill="none">
  <g clip-path="url(#clip0_200_1940)">
    <mask id="mask0_200_1940" style="mask-type:luminance" maskUnits="userSpaceOnUse" x="0" y="0" width="25" height="24">
      <path d="M24.6904 0H0.69043V24H24.6904V0Z" fill="white"/>
    </mask>
    <g mask="url(#mask0_200_1940)">
      <path d="M12.3006 -0.0148913C12.0943 -0.0280163 11.8993 0.0919836 11.8206 0.285109C11.8075 0.315109 11.7756 0.343234 11.7606 0.375109C11.7643 1.43636 11.7756 2.29323 11.7906 2.49011C11.8 2.61198 11.7531 2.71511 11.6856 2.80511C12.3756 2.93448 13.0956 3.08073 13.8156 3.25511C13.8212 3.20823 13.8268 3.16511 13.8456 3.12011C13.9018 2.99448 14.1081 2.52386 14.3706 1.93511C14.3668 1.93511 14.3593 1.93511 14.3556 1.93511C13.5193 1.93511 12.9662 1.40073 12.7206 0.345109C12.6737 0.140734 12.5087 0.00198366 12.3006 -0.0148913ZM2.28059 0.0151087C2.25622 0.0226087 2.24309 0.0357337 2.22059 0.0451087C2.19809 0.0544836 2.18122 0.0619836 2.16059 0.0751087C2.15309 0.0807338 2.15309 0.0844836 2.14559 0.0901087C2.11747 0.108859 2.09309 0.140734 2.07059 0.165109C2.04997 0.187609 2.02559 0.198859 2.01059 0.225109C1.99559 0.251359 1.99184 0.286984 1.98059 0.315109C1.96934 0.345109 1.95622 0.375109 1.95059 0.405109C1.94497 0.433234 1.95059 0.450109 1.95059 0.480109C1.95059 0.513859 1.94309 0.551359 1.95059 0.585109C1.95247 0.594484 1.94872 0.607609 1.95059 0.615109C2.15684 1.34823 2.46247 1.97261 2.83559 2.50511C4.34497 4.35573 7.18184 4.81136 10.1556 5.28011C13.42 5.79573 16.7912 6.31511 18.9006 8.70011C19.0768 8.89886 19.0693 9.21386 18.8706 9.39011C18.7806 9.47073 18.655 9.51011 18.5406 9.51011C18.5312 9.51011 18.5218 9.49511 18.5106 9.49511C18.0718 9.57948 17.1418 9.64886 16.7706 9.36011L17.0706 8.35511C17.0481 8.34011 17.0181 8.32511 16.9956 8.31011L16.0506 9.16511C15.475 8.97386 15.0006 8.64011 15.0006 8.64011C15.0006 8.64011 14.9218 8.01948 15.4206 7.48511C13.7875 6.82323 11.8787 6.52136 10.0056 6.22511C9.00247 6.06761 8.00309 5.90261 7.03559 5.68511C5.20747 6.64323 4.05059 8.66636 4.05059 11.0401C4.05059 12.5607 4.57934 13.6895 5.14559 14.8801C5.78497 16.2282 6.45059 17.6176 6.45059 19.6801C6.45059 22.1964 5.45872 23.7264 5.41559 23.7901C5.32372 23.9289 5.16622 24.0001 5.01059 24.0001H14.1306C14.3968 24.0001 14.6106 23.7864 14.6106 23.5201C14.6106 19.5376 13.93 17.0532 13.1256 15.4201C12.025 15.3414 10.7481 14.6514 9.85559 13.5601C8.55434 11.9701 8.40247 10.0014 9.43559 8.16011C9.56497 7.92948 9.86497 7.85073 10.0956 7.98011C10.3262 8.10948 10.405 8.40948 10.2756 8.64011C9.14122 10.6632 9.99622 12.2157 10.6056 12.9601C11.3537 13.8732 12.3831 14.3851 13.1556 14.4601C13.1931 14.4545 13.24 14.4657 13.2756 14.4601L16.0506 17.1451L15.0756 18.6001C14.9687 18.7576 14.9593 18.9639 15.0606 19.1251C15.1487 19.2676 15.3156 19.3501 15.4806 19.3501C15.5031 19.3501 15.5181 19.3389 15.5406 19.3351C15.5968 19.3276 16.9225 19.1476 17.7756 18.9451C18.6868 18.677 19.2812 18.1426 19.3056 18.1201C19.5006 17.942 19.5137 17.6251 19.3356 17.4301C19.3131 17.4057 19.2868 17.4039 19.2606 17.3851L19.6956 16.8901L19.0956 16.7401C19.6712 16.4064 20.4606 15.8401 20.4606 15.8401H18.5406L18.9306 15.4051L18.3006 15.2701L18.7356 14.6851L17.9706 14.4451C17.9706 14.4451 18.4993 14.0101 18.4506 14.0101C18.4018 13.9614 17.6856 13.7251 17.6856 13.7251L18.0156 13.2451L17.4456 13.0051L17.7756 12.4801L17.6556 12.3901C17.6856 12.3357 17.74 12.2757 17.8506 12.2101C18.0212 12.0976 18.1881 12.0582 18.3756 12.0901C18.3793 12.0901 18.3868 12.0901 18.3906 12.0901L18.3606 12.5251L19.1256 12.0901L19.0806 12.8701L19.8906 12.6301V13.2451L20.4606 12.9601L20.5206 13.6801L21.2856 13.3501C21.2856 13.3501 21.085 14.0139 21.1806 13.9651C21.2443 13.9332 21.5893 13.8451 21.8106 13.7851C21.5368 14.417 21.0006 15.6451 21.0006 15.6451C21.0006 15.6451 22.1218 14.7751 22.6806 14.3101L22.7256 14.8351L23.3406 14.5501V15.1201L23.8806 14.9251C23.95 14.9176 24.0118 14.9026 24.0756 14.8651C24.3006 14.7301 24.6812 14.3776 24.6756 13.5901C24.6681 12.5401 23.9068 10.7814 22.3056 9.03011C22.135 7.89198 21.4806 6.72011 21.4806 6.72011C21.4806 6.72011 21.3906 7.46823 21.1206 7.90511C20.9556 7.76261 20.7868 7.61073 20.6106 7.47011C20.3537 5.98886 19.1706 4.36511 19.1706 4.36511C19.1706 4.36511 19.1687 5.75823 18.6606 6.15011C15.7693 4.49261 12.7787 3.96761 10.1406 3.51011C6.99434 2.96261 4.27559 2.49386 2.82059 0.225109C2.81497 0.217609 2.81122 0.217609 2.80559 0.210109C2.78497 0.181984 2.75684 0.157609 2.73059 0.135109C2.70809 0.116359 2.69497 0.0901087 2.67059 0.0751087C2.64434 0.0601087 2.60872 0.0563589 2.58059 0.0451087C2.55059 0.0338587 2.53559 0.0207337 2.50559 0.0151087C2.47747 0.00948369 2.44372 0.0151087 2.41559 0.0151087C2.38184 0.0151087 2.34434 0.00760867 2.31059 0.0151087C2.30122 0.0169837 2.28997 0.0132337 2.28059 0.0151087ZM7.44059 0.225109C7.25309 0.268234 7.11434 0.425734 7.08059 0.615109C7.07872 0.620734 7.08247 0.624484 7.08059 0.630109V1.90511C8.03872 2.17323 9.12059 2.35886 10.3056 2.56511C10.4893 2.59698 10.6731 2.62323 10.8606 2.65511C10.8512 2.62323 10.8343 2.60073 10.8306 2.56511C10.8193 2.41698 10.8212 1.97073 10.8156 1.38011C10.5381 1.54136 10.2175 1.65011 9.87059 1.65011C9.18809 1.65011 8.52997 1.23761 7.93559 0.420109C7.82309 0.264484 7.62809 0.183859 7.44059 0.225109ZM15.9006 1.42511C15.8143 1.43636 15.7318 1.47386 15.6606 1.53011C15.64 1.54511 15.61 1.55823 15.5856 1.57511C15.1806 2.48073 14.8187 3.29823 14.7306 3.49511C15.5425 3.72386 16.3618 4.00136 17.1906 4.35011C16.8081 3.69386 16.4762 2.84636 16.4406 1.87511C16.4331 1.69323 16.3206 1.54511 16.1556 1.47011C16.0731 1.43261 15.9868 1.41386 15.9006 1.42511ZM3.54059 4.36511C3.50122 4.58073 3.41872 4.78698 3.30059 4.98011C2.91247 5.61573 2.13997 6.02448 1.23059 6.09011C1.05247 6.10323 0.896842 6.22511 0.825591 6.39011C0.754341 6.55511 0.786216 6.74636 0.900591 6.88511C0.934342 6.92823 0.958716 6.97323 0.990591 7.02011L2.92559 7.78511C3.17309 7.88261 3.29309 8.15261 3.19559 8.40011C3.12059 8.58948 2.95184 8.71511 2.76059 8.71511C2.70247 8.71511 2.63872 8.69261 2.58059 8.67011L1.54559 8.26511C1.89247 9.56261 1.79872 11.2051 0.855591 12.0301C0.748716 12.1239 0.686841 12.2476 0.690591 12.3901C0.694341 12.5326 0.759966 12.677 0.870591 12.7651C0.947466 12.827 1.02059 12.8795 1.09559 12.9451L2.29559 12.7501C2.55622 12.707 2.80559 12.8795 2.85059 13.1401C2.89559 13.4007 2.70809 13.6501 2.44559 13.6951L1.81559 13.8001C2.21309 14.5314 2.22059 15.5101 1.26059 16.9201C1.17247 17.0495 1.14434 17.2089 1.20059 17.3551C1.25684 17.5014 1.37872 17.6176 1.53059 17.6551C1.61497 17.6757 1.69559 17.702 1.77059 17.7301C2.49809 17.447 3.06997 17.2145 3.25559 17.1151C3.48809 16.9895 3.77497 17.0757 3.90059 17.3101C4.02622 17.5445 3.93997 17.8445 3.70559 17.9701C3.54434 18.0564 3.16934 18.212 2.68559 18.4051C2.84872 18.6339 2.92559 18.8607 2.97059 19.0351C3.17497 19.8226 2.90684 20.7151 2.28059 21.3001C2.15684 21.4164 2.10997 21.5851 2.14559 21.7501C2.18122 21.9151 2.29934 22.0576 2.46059 22.1101C2.54497 22.1382 2.62184 22.1551 2.70059 22.1851C3.45247 21.8626 4.02809 21.617 4.24559 21.4951C4.47809 21.3657 4.77622 21.4426 4.90559 21.6751C5.03497 21.9057 4.94122 22.1907 4.71059 22.3201C4.54747 22.4101 4.22122 22.5676 3.79559 22.7551C4.19122 23.027 4.42934 23.2839 4.54559 23.4301C4.55684 23.372 4.56997 23.3026 4.60559 23.2501C4.61872 23.2314 5.37997 22.0482 5.47559 20.0851C5.48309 19.9539 5.49059 19.817 5.49059 19.6801C5.49059 17.8351 4.86997 16.5357 4.27559 15.2851C4.05622 14.822 3.83684 14.357 3.64559 13.8601C3.32497 13.0314 3.09059 12.1257 3.09059 11.0401C3.09059 10.7701 3.10934 10.5076 3.13559 10.2451C3.13934 10.2095 3.14684 10.1739 3.15059 10.1401C3.18059 9.87761 3.21622 9.61323 3.27059 9.36011C3.27434 9.34323 3.28184 9.33198 3.28559 9.31511C3.64559 7.70073 4.49872 6.31511 5.71559 5.38511C5.73247 5.37198 5.74372 5.36636 5.76059 5.35511C4.95434 5.10573 4.20809 4.78698 3.54059 4.36511ZM21.0606 10.1401C21.1825 10.1195 21.3118 10.1382 21.4206 10.2151C22.2887 10.8282 22.7518 11.4489 22.7706 11.4751C22.93 11.687 22.8925 11.9907 22.6806 12.1501C22.5943 12.2157 22.4818 12.2401 22.3806 12.2401C22.2343 12.2401 22.0993 12.1707 22.0056 12.0451C22.0018 12.0414 21.6025 11.5145 20.8656 10.9951C20.65 10.8432 20.5918 10.5526 20.7456 10.3351C20.8225 10.2264 20.9387 10.1607 21.0606 10.1401Z" fill="#185745"/>
    </g>
  </g>
  <defs>
    <clipPath id="clip0_200_1940">
      <rect width="24" height="24" fill="white" transform="translate(0.69043)"/>
    </clipPath>
  </defs>
</svg>