<svg xmlns="http://www.w3.org/2000/svg" width="25" height="24" viewBox="0 0 25 24" fill="none">
  <g clip-path="url(#clip0_200_1910)">
    <path d="M24.0495 9.39231C23.8386 9.67008 23.6214 9.94398 23.4195 10.2289C23.3461 10.333 23.2679 10.4619 23.2599 10.5842C23.1632 12.0787 22.1993 13.1328 20.7734 13.2617C20.5001 13.2866 20.3109 13.4095 20.098 13.5788C19.6271 13.9528 19.4379 14.4121 19.5346 15.0136C19.5399 15.0457 19.5351 15.0789 19.5351 15.1115C19.5346 15.7423 19.3671 15.9498 18.7588 16.0461C18.8259 16.5596 18.8919 17.0742 18.9601 17.5882C19.2006 19.3931 19.4458 21.1975 19.6804 23.0036C19.7217 23.3201 19.7481 23.6626 19.4564 23.8801C19.1504 24.1086 18.8396 23.9664 18.5495 23.8181C16.4598 22.7507 14.3717 21.6806 12.2868 20.6038C12.1166 20.5158 11.9866 20.5109 11.8133 20.6005C9.74211 21.6701 7.66776 22.7319 5.59184 23.791C5.43276 23.8723 5.26047 23.9443 5.08765 23.9719C4.67913 24.0367 4.40484 23.8087 4.40906 23.3777C4.41329 22.9798 4.4709 22.5809 4.52269 22.1847C4.79064 20.1451 5.0644 18.1061 5.33921 16.0422C5.2647 16.0356 5.19969 16.0239 5.13469 16.0239C4.67384 16.0223 4.21246 16.025 3.75162 16.0228C3.26646 16.0206 3.01172 15.7611 3.00908 15.2543C3.00433 14.4442 3.00327 13.6347 3.0112 12.8246C3.01278 12.6536 2.96046 12.538 2.84419 12.4212C2.05991 11.6344 1.28249 10.8409 0.503493 10.048C0.414178 9.95671 0.324862 9.86375 0.246645 9.76249C-0.0995194 9.31374 0.0183347 8.83511 0.541545 8.66856C0.777254 8.59331 0.832746 8.4832 0.826932 8.24195C0.812134 7.62997 1.06052 7.38374 1.64979 7.38318C3.04819 7.38318 4.44764 7.40919 5.84551 7.3699C6.38405 7.35496 6.92047 7.19671 7.45425 7.08715C7.52613 7.07221 7.5943 6.96929 7.63922 6.89183C8.83732 4.82294 10.0312 2.75183 11.2277 0.682392C11.3001 0.556787 11.3752 0.430628 11.4645 0.317749C11.7979 -0.104993 12.2958 -0.106099 12.6293 0.315536C12.7233 0.434501 12.8021 0.567853 12.8787 0.700652C14.071 2.76345 15.2628 4.82626 16.4492 6.89293C16.5296 7.03237 16.6294 7.08937 16.7721 7.13418C17.8254 7.46341 18.9067 7.36492 19.9812 7.38927C20.4314 7.39923 20.8844 7.44847 21.3283 7.52815C21.8415 7.62056 22.2711 7.89667 22.6258 8.30392C22.7077 8.39798 22.8377 8.45553 22.955 8.50312C23.0697 8.55015 23.1965 8.56619 23.3191 8.59054C23.6315 8.65196 23.8867 8.80191 24.05 9.09794L24.0495 9.39231ZM12.1457 15.4756C12.3402 15.4529 12.67 15.4391 12.9902 15.3738C14.0277 15.1607 14.822 14.5886 15.239 13.5495C15.6755 12.4627 15.6908 11.335 15.3722 10.2151C15.0773 9.18039 14.4077 8.49592 13.4262 8.16559C12.5664 7.8762 11.6854 7.85794 10.8144 8.08148C9.6734 8.37364 8.90339 9.11288 8.55933 10.302C8.32627 11.1076 8.31835 11.9293 8.47425 12.7505C8.66503 13.7581 9.16553 14.5449 10.0402 15.0385C10.6543 15.3854 11.3318 15.4485 12.1468 15.4761L12.1457 15.4756ZM16.7378 15.3273H18.8914V12.6226C19.4352 12.6226 19.951 12.6509 20.4626 12.616C21.2781 12.5607 21.9968 12.2879 22.389 11.454C22.6125 10.9787 22.6548 10.4691 22.5988 9.94785C22.5169 9.19035 22.2199 8.56398 21.4974 8.30503C21.0926 8.16005 20.6481 8.08757 20.2185 8.07484C19.134 8.0433 18.0479 8.06433 16.9629 8.06433C16.8884 8.06433 16.8144 8.06433 16.7378 8.06433V15.3273ZM1.47486 9.87371H3.66177V15.3223H5.81645V9.85987H7.98645V8.07982H1.47486V9.87371Z" fill="#185745"/>
    <path d="M10.4648 11.6585C10.56 11.248 10.608 10.7837 10.7766 10.3737C11.0013 9.82481 11.5509 9.58134 12.1444 9.65992C12.7717 9.74292 13.1892 10.112 13.3298 10.771C13.4783 11.466 13.4693 12.1676 13.2664 12.8537C13.0899 13.453 12.6623 13.759 12.0059 13.7811C11.4003 13.8016 10.8765 13.4746 10.7053 12.9057C10.5896 12.5212 10.5489 12.1111 10.4648 11.6585Z" fill="#185745"/>
    <path d="M18.8965 11.207V9.5127C19.2812 9.54811 19.6612 9.55254 20.029 9.62613C20.3446 9.68921 20.5248 9.99132 20.5322 10.3349C20.5396 10.683 20.3763 10.9818 20.0528 11.0581C19.6861 11.1445 19.3034 11.1577 18.8965 11.207Z" fill="#185745"/>
  </g>
  <defs>
    <clipPath id="clip0_200_1910">
      <rect width="24" height="24" fill="white" transform="translate(0.0498047)"/>
    </clipPath>
  </defs>
</svg>