<svg width="23" height="16" viewBox="0 0 23 16" fill="none" xmlns="http://www.w3.org/2000/svg">
<path fill-rule="evenodd" clip-rule="evenodd" d="M2.61597 0C1.5114 0 0.615967 0.895431 0.615967 2V9C0.615967 10.1046 1.5114 11 2.61597 11H14.7978L11.616 16L20.616 11C21.7206 11 22.616 10.1046 22.616 9V7.27273V2C22.616 0.895431 21.7206 0 20.616 0H2.61597Z" fill="#FF555F"/>
<path d="M6.95264 2.18182L8.46684 6.76136H8.5265L10.0379 2.18182H11.197L9.14582 8H7.84468L5.79639 2.18182H6.95264ZM16.7446 2.18182V8H15.8071L13.0656 4.03693H13.0173V8H11.9633V2.18182H12.9065L15.6451 6.14773H15.6963V2.18182H16.7446Z" fill="white"/>
</svg>
