<svg xmlns="http://www.w3.org/2000/svg" width="24" height="24" viewBox="0 0 24 24" fill="none">
  <path d="M1 5.72457C8.3335 3.21457 15.6665 8.23457 23 5.72457C23 9.90807 23 14.0916 23 18.2756C15.6665 20.7856 8.3335 15.7656 1 18.2756C1 14.0921 1 9.90807 1 5.72457Z" fill="#DA251D"/>
  <path d="M13.4548 12.6891C14.2388 12.2811 15.0228 11.8621 15.8063 11.4126C14.8373 11.3061 13.8688 11.1546 12.8998 10.9921C12.5998 10.0736 12.2998 9.15412 11.9998 8.23462C11.6998 9.05112 11.3998 9.86812 11.0998 10.6861C10.1308 10.5236 9.16236 10.3716 8.19336 10.2656C8.97736 10.8866 9.76136 11.5371 10.5448 12.1996C10.2453 13.0176 9.94586 13.8371 9.64636 14.6591C10.4308 14.2396 11.2153 13.8381 11.9998 13.4371C12.7843 14.1066 13.5688 14.7761 14.3533 15.4276C14.0538 14.5171 13.7543 13.6041 13.4548 12.6891Z" fill="#FFFF00"/>
  <path d="M1 5.72457C8.3335 3.21457 15.6665 8.23457 23 5.72457C23 9.90807 23 14.0916 23 18.2756C15.6665 20.7856 8.3335 15.7656 1 18.2756C1 14.0921 1 9.90807 1 5.72457Z" fill="url(#paint0_linear_20_24527)"/>
  <path opacity="0.3" d="M1 5.72457C8.3335 3.21457 15.6665 8.23457 23 5.72457C23 9.90807 23 14.0916 23 18.2756C15.6665 20.7856 8.3335 15.7656 1 18.2756C1 14.0921 1 9.90807 1 5.72457Z" fill="url(#paint1_linear_20_24527)"/>
  <defs>
    <linearGradient id="paint0_linear_20_24527" x1="1" y1="12.0001" x2="23" y2="12.0001" gradientUnits="userSpaceOnUse">
      <stop offset="0.004" stop-opacity="0.63"/>
      <stop offset="0.009" stop-color="#000102" stop-opacity="0.614"/>
      <stop offset="0.075" stop-color="#000615" stop-opacity="0.417"/>
      <stop offset="0.144" stop-color="#000A20" stop-opacity="0.215"/>
      <stop offset="0.216" stop-color="#000B24" stop-opacity="0"/>
      <stop offset="0.361" stop-color="#000B24" stop-opacity="0.018"/>
      <stop offset="0.46" stop-color="#000510" stop-opacity="0.17"/>
      <stop offset="0.565" stop-opacity="0.33"/>
      <stop offset="0.622" stop-color="#000206" stop-opacity="0.229"/>
      <stop offset="0.701" stop-color="#000718" stop-opacity="0.092"/>
      <stop offset="0.743" stop-color="#000B24" stop-opacity="0.018"/>
      <stop offset="0.83" stop-color="#000B24" stop-opacity="0.018"/>
      <stop offset="0.885" stop-color="#000A1F" stop-opacity="0.183"/>
      <stop offset="0.946" stop-color="#000612" stop-opacity="0.368"/>
      <stop offset="1" stop-opacity="0.53"/>
    </linearGradient>
    <linearGradient id="paint1_linear_20_24527" x1="1" y1="12.0001" x2="23" y2="12.0001" gradientUnits="userSpaceOnUse">
      <stop stop-color="white" stop-opacity="0"/>
      <stop offset="0.263" stop-color="white" stop-opacity="0.3"/>
      <stop offset="0.464" stop-color="white" stop-opacity="0"/>
      <stop offset="0.553" stop-color="white" stop-opacity="0"/>
      <stop offset="0.79" stop-color="white" stop-opacity="0.3"/>
      <stop offset="0.996" stop-color="white" stop-opacity="0"/>
    </linearGradient>
  </defs>
</svg>