<svg xmlns="http://www.w3.org/2000/svg" width="25" height="24" viewBox="0 0 25 24" fill="none">
  <path d="M19.4997 7.25011H19.2497V5.00011C19.2471 4.53679 19.0619 4.09319 18.7343 3.76557C18.4067 3.43795 17.9631 3.25273 17.4997 3.25011C17.4203 3.23629 17.3391 3.23629 17.2597 3.25011L5.35974 7.25011H5.08974L4.91974 7.31011H4.77974L4.61974 7.40011L4.49974 7.57011L4.35974 7.69011L4.24974 7.79011L4.12974 7.94011C4.09787 7.96893 4.07086 8.0027 4.04974 8.04011C4.01334 8.09835 3.97996 8.15843 3.94974 8.22011L3.88974 8.33011C3.86219 8.40203 3.83882 8.47549 3.81974 8.55011C3.82378 8.58666 3.82378 8.62355 3.81974 8.66011C3.81009 8.77324 3.81009 8.88698 3.81974 9.00011V19.0001C3.82184 19.4516 3.99739 19.8851 4.31008 20.2108C4.62277 20.5365 5.04868 20.7296 5.49974 20.7501H19.4997C19.9631 20.7475 20.4067 20.5623 20.7343 20.2346C21.0619 19.907 21.2471 19.4634 21.2497 19.0001V9.00011C21.2471 8.53679 21.0619 8.09319 20.7343 7.76557C20.4067 7.43795 19.9631 7.25273 19.4997 7.25011ZM17.5797 4.76011C17.629 4.77827 17.6716 4.81092 17.7019 4.85376C17.7323 4.8966 17.7489 4.94762 17.7497 5.00011V7.25011H10.1197L17.5797 4.76011ZM19.7497 19.0001C19.7497 19.0664 19.7234 19.13 19.6765 19.1769C19.6296 19.2238 19.566 19.2501 19.4997 19.2501H5.49974C5.43343 19.2501 5.36985 19.2238 5.32296 19.1769C5.27608 19.13 5.24974 19.0664 5.24974 19.0001V9.00011C5.24974 8.9338 5.27608 8.87022 5.32296 8.82333C5.36985 8.77645 5.43343 8.75011 5.49974 8.75011H19.4997C19.566 8.75011 19.6296 8.77645 19.6765 8.82333C19.7234 8.87022 19.7497 8.9338 19.7497 9.00011V19.0001Z" fill="#185745"/>
  <path d="M17 15.25C17.6904 15.25 18.25 14.6904 18.25 14C18.25 13.3096 17.6904 12.75 17 12.75C16.3096 12.75 15.75 13.3096 15.75 14C15.75 14.6904 16.3096 15.25 17 15.25Z" fill="#185745"/>
</svg>