<svg xmlns="http://www.w3.org/2000/svg" width="24" height="24" viewBox="0 0 24 24" fill="none">
  <path d="M12 22.8652C18.0751 22.8652 23 17.9404 23 11.8652C23 5.7901 18.0751 0.865234 12 0.865234C5.92487 0.865234 1 5.7901 1 11.8652C1 17.9404 5.92487 22.8652 12 22.8652Z" fill="white"/>
  <path d="M7.60206 6.86523C7.0843 6.86523 6.63065 6.97786 6.24119 7.20281C5.85172 7.42777 5.54751 7.73987 5.32856 8.14003C5.10962 8.54018 5 9.00674 5 9.53871V11.7443C5 12.2765 5.11475 12.7423 5.34425 13.1425C5.57375 13.5426 5.87284 13.8552 6.24119 14.0802C6.60954 14.3051 6.99981 14.4173 7.41245 14.4173H7.54199V15.3259C7.54199 15.6935 7.63768 15.9819 7.82932 16.1918C8.02095 16.4016 8.27893 16.5068 8.60298 16.5068C8.82629 16.5068 9.04294 16.4577 9.25294 16.3603C9.46339 16.2632 9.70383 16.0958 9.97327 15.8579L11.6022 14.4173H12.4659C12.9837 14.4173 13.4369 14.3051 13.8264 14.0802C14.2158 13.8552 14.5201 13.5426 14.739 13.1425C14.9579 12.7423 15.0676 12.2762 15.0676 11.7443V9.53871C15.0676 9.00651 14.9579 8.54018 14.739 8.14003C14.5201 7.73987 14.2158 7.42777 13.8264 7.20281C13.4371 6.97786 12.9837 6.86523 12.4659 6.86523H7.60206ZM7.76656 8.74703H12.3279C12.6311 8.74703 12.8623 8.82576 13.0222 8.98375C13.1822 9.14173 13.2625 9.38281 13.2625 9.70727V11.5757C13.2625 11.9002 13.1822 12.141 13.0222 12.2992C12.8623 12.457 12.6311 12.5359 12.3279 12.5359H11.4386C11.2323 12.5359 11.071 12.565 10.9554 12.6234C10.8397 12.6819 10.7016 12.7888 10.5416 12.9444L9.03285 14.4431V13.1066C9.03285 12.8991 8.98125 12.7519 8.87821 12.6654C8.77516 12.5788 8.64112 12.5359 8.47703 12.5359H7.76656C7.46339 12.5359 7.23175 12.4572 7.07178 12.2992C6.91182 12.1412 6.83152 11.9002 6.83152 11.5757V9.70727C6.83152 9.38281 6.91182 9.14173 7.07178 8.98375C7.23175 8.826 7.46339 8.74703 7.76656 8.74703ZM15.9753 9.22323C15.9821 9.32698 15.9865 9.43306 15.9865 9.53917V11.105H16.2343C16.5373 11.105 16.7694 11.1852 16.93 11.3408C17.0884 11.4988 17.1685 11.7418 17.1685 12.0648V13.9346C17.1685 14.2577 17.0884 14.4979 16.93 14.6558C16.7694 14.8138 16.5373 14.8944 16.2343 14.8944H15.523C15.36 14.8944 15.2246 14.9366 15.1213 15.0238C15.0204 15.1111 14.9676 15.2575 14.9676 15.465V16.802L13.4575 15.302C13.4391 15.2831 13.4207 15.2646 13.4023 15.2504C13.3663 15.2591 13.3303 15.2675 13.2939 15.2753C12.7942 15.3828 12.4191 15.3609 11.9428 15.3609L10.5358 16.6063C10.8365 16.7194 11.1696 16.7757 11.5345 16.7757H12.3974L14.0267 18.2168C14.2952 18.4526 14.5364 18.6221 14.7475 18.7188C14.9564 18.8155 15.1744 18.8652 15.397 18.8652C15.7206 18.8652 15.9798 18.7592 16.1702 18.5493C16.363 18.3394 16.4571 18.0518 16.4571 17.6839V16.7757C16.5606 16.7757 17.1194 16.8284 17.7584 16.4386C18.1279 16.2122 18.4262 15.9009 18.6557 15.5C18.8852 15.0992 19 14.6347 19 14.1018V11.8972C19 11.3643 18.8899 10.8974 18.6719 10.4989C18.4539 10.0981 18.1485 9.78672 17.7584 9.56035C17.3705 9.33634 16.9162 9.22323 16.3975 9.22323H15.9753Z" fill="#003F19"/>
</svg>